<svg xmlns="http://www.w3.org/2000/svg" viewBox="0 0 612 792"><defs><style>.cls-1{fill:#f6fcfe;}.cls-2{opacity:0.15;}.cls-3{fill:#141a43;}</style></defs><title>blue34</title><g id="Layer_2" data-name="Layer 2"><g id="Layer_1-2" data-name="Layer 1"><rect class="cls-1" width="612" height="792"/></g><g id="Layer_2-2" data-name="Layer 2"><g class="cls-2"><path class="cls-3" d="M73.57,95.48c3.22,0,3.22-5,0-5s-3.22,5,0,5Z"/></g><g class="cls-2"><path class="cls-3" d="M150.07,104.48c3.21,0,3.22-5,0-5s-3.23,5,0,5Z"/></g><g class="cls-2"><path class="cls-3" d="M330.06,113.48c3.21,0,3.22-5,0-5s-3.23,5,0,5Z"/></g><g class="cls-2"><path class="cls-3" d="M57.07,206.47c3.22,0,3.22-5,0-5s-3.22,5,0,5Z"/></g><g class="cls-2"><path class="cls-3" d="M225.06,245.47c3.22,0,3.22-5,0-5s-3.22,5,0,5Z"/></g><g class="cls-2"><path class="cls-3" d="M238.56,145c3.22,0,3.22-5,0-5s-3.22,5,0,5Z"/></g><g class="cls-2"><path class="cls-3" d="M187.56,139c3.22,0,3.23-5,0-5s-3.22,5,0,5Z"/></g><g class="cls-2"><path class="cls-3" d="M126.07,73c3.21,0,3.22-5,0-5s-3.23,5,0,5Z"/></g><g class="cls-2"><path class="cls-3" d="M426.05,134.47c3.22,0,3.22-5,0-5s-3.22,5,0,5Z"/></g><g class="cls-2"><path class="cls-3" d="M442.55,62.48c3.22,0,3.22-5,0-5s-3.22,5,0,5Z"/></g><g class="cls-2"><path class="cls-3" d="M352.56,296.47c3.21,0,3.22-5,0-5s-3.23,5,0,5Z"/></g><g class="cls-2"><path class="cls-3" d="M541.55,232c3.21,0,3.22-5,0-5s-3.23,5,0,5Z"/></g><g class="cls-2"><path class="cls-3" d="M415.55,194.47c3.22,0,3.22-5,0-5s-3.22,5,0,5Z"/></g><g class="cls-2"><path class="cls-3" d="M199.56,400c3.22,0,3.23-5,0-5s-3.22,5,0,5Z"/></g><g class="cls-2"><path class="cls-3" d="M99.07,283c3.22,0,3.22-5,0-5s-3.22,5,0,5Z"/></g><g class="cls-2"><path class="cls-3" d="M147.07,274c3.21,0,3.22-5,0-5s-3.23,5,0,5Z"/></g><g class="cls-2"><path class="cls-3" d="M93.07,421c3.22,0,3.22-5,0-5s-3.22,5,0,5Z"/></g><g class="cls-2"><path class="cls-3" d="M261.06,530.45c3.22,0,3.22-5,0-5s-3.22,5,0,5Z"/></g><g class="cls-2"><path class="cls-3" d="M298.56,382c3.22,0,3.22-5,0-5s-3.22,5,0,5Z"/></g><g class="cls-2"><path class="cls-3" d="M265.56,319c3.22,0,3.22-5,0-5s-3.22,5,0,5Z"/></g><g class="cls-2"><path class="cls-3" d="M441.05,395.46c3.22,0,3.22-5,0-5s-3.22,5,0,5Z"/></g><g class="cls-2"><path class="cls-3" d="M466.55,289c3.22,0,3.22-5,0-5s-3.22,5,0,5Z"/></g><g class="cls-2"><path class="cls-3" d="M418.55,241c3.22,0,3.22-5,0-5s-3.22,5,0,5Z"/></g><g class="cls-2"><path class="cls-3" d="M540.05,364c3.21,0,3.22-5,0-5s-3.23,5,0,5Z"/></g><g class="cls-2"><path class="cls-3" d="M436.55,503.46c3.22,0,3.22-5,0-5s-3.22,5,0,5Z"/></g><g class="cls-2"><path class="cls-3" d="M345.06,458.46c3.21,0,3.22-5,0-5s-3.23,5,0,5Z"/></g><g class="cls-2"><path class="cls-3" d="M396.05,680.45c3.22,0,3.23-5,0-5s-3.22,5,0,5Z"/></g><g class="cls-2"><path class="cls-3" d="M196.56,644.45c3.22,0,3.23-5,0-5s-3.22,5,0,5Z"/></g><g class="cls-2"><path class="cls-3" d="M168.06,545.45c3.22,0,3.23-5,0-5s-3.22,5,0,5Z"/></g><g class="cls-2"><path class="cls-3" d="M84.07,590.45c3.22,0,3.22-5,0-5s-3.22,5,0,5Z"/></g><g class="cls-2"><path class="cls-3" d="M139.57,670c3.21,0,3.22-5,0-5s-3.23,5,0,5Z"/></g><g class="cls-2"><path class="cls-3" d="M217.56,732.94c3.22,0,3.22-5,0-5s-3.22,5,0,5Z"/></g><g class="cls-2"><path class="cls-3" d="M329.56,697.45V696a2.5,2.5,0,0,0-5,0v1.5a2.5,2.5,0,0,0,5,0Z"/></g><g class="cls-2"><path class="cls-3" d="M330.06,587.45c3.21,0,3.22-5,0-5s-3.23,5,0,5Z"/></g><g class="cls-2"><path class="cls-3" d="M534.05,740.44c3.21,0,3.22-5,0-5s-3.23,5,0,5Z"/></g><g class="cls-2"><path class="cls-3" d="M577.54,587.45c3.22,0,3.23-5,0-5s-3.22,5,0,5Z"/></g><g class="cls-2"><path class="cls-3" d="M508.55,536.45c3.21,0,3.22-5,0-5s-3.22,5,0,5Z"/></g><g class="cls-2"><path class="cls-3" d="M469.55,644.45c3.22,0,3.22-5,0-5s-3.22,5,0,5Z"/></g><g class="cls-2"><path class="cls-3" d="M96.07,729.94c3.22,0,3.22-5,0-5s-3.22,5,0,5Z"/></g><g class="cls-2"><path class="cls-3" d="M33.07,667c3.22,0,3.22-5,0-5s-3.22,5,0,5Z"/></g><g class="cls-2"><path class="cls-3" d="M34.57,782.44c3.22,0,3.22-5,0-5s-3.22,5,0,5Z"/></g><g class="cls-2"><path class="cls-3" d="M58.57,541c3.22,0,3.22-5,0-5s-3.22,5,0,5Z"/></g><g class="cls-2"><path class="cls-3" d="M43.57,383.46c3.22,0,3.22-5,0-5s-3.22,5,0,5Z"/></g><g class="cls-2"><path class="cls-3" d="M40.57,259c3.22,0,3.22-5,0-5s-3.22,5,0,5Z"/></g><g class="cls-2"><path class="cls-3" d="M30.07,43c3.22,0,3.22-5,0-5s-3.22,5,0,5Z"/></g><g class="cls-2"><path class="cls-3" d="M202.56,56.48c3.22,0,3.23-5,0-5s-3.22,5,0,5Z"/></g><g class="cls-2"><path class="cls-3" d="M123.07,179.47c3.21,0,3.22-5,0-5s-3.23,5,0,5Z"/></g><g class="cls-2"><path class="cls-3" d="M360.06,38.48c3.21,0,3.22-5,0-5s-3.23,5,0,5Z"/></g><g class="cls-2"><path class="cls-3" d="M547.55,97c3.21,0,3.22-5,0-5s-3.23,5,0,5Z"/></g></g></g></svg>