<svg xmlns="http://www.w3.org/2000/svg" viewBox="0 0 388.03 640.27"><defs><style>.cls-1{fill:#fff;}.cls-2{fill:#e8488a;}.cls-3{fill:#69502a;}.cls-4{fill:#eb96c0;}.cls-5{fill:none;stroke:#231f20;stroke-miterlimit:10;stroke-width:2px;}.cls-6{fill:#231f20;}</style></defs><title>face</title><g id="Layer_2" data-name="Layer 2"><g id="Layer_2-2" data-name="Layer 2"><path class="cls-1" d="M261.55,207a217.47,217.47,0,0,0-22.05-12.61l-.7-.34-.51,1a71.15,71.15,0,0,0-12.59,3.33h0c-6.92,2.54-13.54,6.34-17.48,11.48l-1.16.94c5.24,1.84,12.16,2.83,19.48,3a97.13,97.13,0,0,0,18.32-1.4C251.3,211.26,257.18,209.44,261.55,207Zm-118.22,4.54-.66-.73a34,34,0,0,0-20.18-10.95,32,32,0,0,0-6-.37,35.59,35.59,0,0,0-7.7,1.11,58,58,0,0,0-18.44,8.85c2.38,4.45,7,7.38,11.85,8.73a35.58,35.58,0,0,0,8.67,1.16c2.12,0,4.26,0,6.37-.17,2.8-.16,5.64-.41,8.44-.85C132.06,217.31,138.27,215.4,143.33,211.51ZM143,326.27h0l.05,0c3.92,3,6.89,7.32,10.88,10.33,8.66,6.52,20.53,6,31.34,5.25,5.88-.42,11.82-.86,17.43-2.67,13.38-4.33,23-15.76,31.8-26.76l-1.26-1a21.74,21.74,0,0,1-5.33,2.26,21.32,21.32,0,0,1-6.2.78c-6.28-.14-12.36-3-18.62-2.47a35.11,35.11,0,0,0-8,1.95l-10.87,3.57A36,36,0,0,0,163.73,319C158,321.35,149.14,325.79,143,326.27Zm-6,156.17,2.32.05a42.67,42.67,0,0,0,1.36,9.43c2.16,8.59,6.49,16.76,10,25a150.92,150.92,0,0,1,11.5,73c-1.1,11.82-3.6,23.53-4.38,35.34q-5.94,6.45-11.89,12.91c-6.21-27.24-24.79-49.67-41.78-71.84C88,545.38,72.33,522.09,69.9,496a114.25,114.25,0,0,1-38.71-78.68c-1.58-28,7.27-56.22,2.37-83.81C27.46,299.18.69,269.74,1,234.87c.23-24.81,14.33-47.43,17.9-72,2.67-18.45-.69-37.22-.25-55.86a138,138,0,0,1,33.7-86.57C71.6,3.31,101.57,4.2,127.33,1.89c61.23-5.51,118.54,14.5,158.29,61.4,27,31.82,44.56,70.32,61.66,108.35,7.14,15.9,14.3,31.91,18.39,48.85,4.23,17.49,5.11,35.58,7.39,53.42,3.95,30.91,12.15,61.3,13.69,92.42,2.06,41.5-7.78,82.51-18.12,122.82a75.28,75.28,0,0,1-12.18,33.26c3.88-18.64-.78-37.21-8.74-54.84a269.46,269.46,0,0,0-16.84-30.65c-7.57-12.19-15.5-24.78-21.6-37.87-6.86-14.73-11.39-30.09-10.47-46.22.68-11.8,4.3-23.19,7.13-34.67a225,225,0,0,0,7-50.36c.12-4.68.11-9.48,0-14.5a218.21,218.21,0,0,0-15.64-17.39,111.2,111.2,0,0,1,1.13,25.21,5.54,5.54,0,0,0-2.63,2.19,8.66,8.66,0,0,0,.9,9.5s0,0,0,0a111,111,0,0,1-10.5,27.73c-6.43,12.34-15.52,23.07-24.53,33.68l-1,1.16C254.85,342.2,249.05,349,243,355.53c-10.71,11.48-22.54,22.28-36.65,29.19s-30.82,9.6-45.69,4.57c-11-3.73-20.21-11.29-29.15-18.71L94,339.48l-.2,0c2.5,7.82,4.92,15.66,7.65,23.39C115.35,402.36,137.78,441.24,136.93,482.44Z"/><path class="cls-1" d="M330.87,436.92a269.46,269.46,0,0,1,16.84,30.65c-23.08,28.81-53.17,44.48-89.5,51s-85.95-7.62-117.59-26.64h0a42.67,42.67,0,0,1-1.36-9.43l-2.32-.05c.85-41.2-21.58-80.08-35.52-119.52-2.73-7.73-5.15-15.57-7.65-23.39l.2,0,37.51,31.1c8.94,7.42,18.14,15,29.15,18.71,14.87,5,31.59,2.33,45.69-4.57S232.25,367,243,355.53c6.09-6.53,11.89-13.33,17.67-20.14l1.06.9c-.5,8.77-1,17.65.7,26.27,3.59,18.37,29.25,32.51,46.88,36.49C315.37,412.14,323.3,424.73,330.87,436.92Z"/><path class="cls-1" d="M312.89,253.3c.12,5,.13,9.82,0,14.5l-1.74,0c0-4.25-3.68-8.38-8-8.51L302,261.8a2.93,2.93,0,0,0-3.65-.68,111.2,111.2,0,0,0-1.13-25.21A218.21,218.21,0,0,1,312.89,253.3Z"/><path class="cls-1" d="M311.16,267.76l1.74,0a225,225,0,0,1-7,50.36c-2.83,11.48-6.45,22.87-7.13,34.67-.92,16.13,3.61,31.49,10.47,46.22-17.63-4-43.29-18.12-46.88-36.49-1.69-8.62-1.2-17.5-.7-26.27l-1.06-.9,1-1.16c9-10.61,18.1-21.34,24.53-33.68a111,111,0,0,0,10.5-27.73,7.57,7.57,0,0,0,3.25,2.47,8.67,8.67,0,0,0,11.12-6.1A6.87,6.87,0,0,0,311.16,267.76Z"/><path class="cls-2" d="M311.16,267.76a6.87,6.87,0,0,1-.14,1.43,8.67,8.67,0,0,1-11.12,6.1,7.57,7.57,0,0,1-3.25-2.47s0,0,0,0a87.85,87.85,0,0,0,1.73-11.69,2.93,2.93,0,0,1,3.65.68l1.12-2.55C307.48,259.38,311.16,263.51,311.16,267.76Z"/><path class="cls-2" d="M298.38,261.12a87.85,87.85,0,0,1-1.73,11.69,8.66,8.66,0,0,1-.9-9.5A5.54,5.54,0,0,1,298.38,261.12Z"/><path class="cls-3" d="M238.29,195.07a13.35,13.35,0,0,1,6.4,16.34l.17,1a97.13,97.13,0,0,1-18.32,1.4c-4.15-4.45-4.5-10.34-.84-15.38h0A71.15,71.15,0,0,1,238.29,195.07Z"/><path class="cls-1" d="M244.69,211.41a13.35,13.35,0,0,0-6.4-16.34l.51-1,.7.34A217.47,217.47,0,0,1,261.55,207c-4.37,2.47-10.25,4.29-16.69,5.42Z"/><path class="cls-4" d="M228.52,314.67l-.67-1a21.74,21.74,0,0,0,5.33-2.26l1.26,1c-8.8,11-18.42,22.43-31.8,26.76-5.61,1.81-11.55,2.25-17.43,2.67-10.81.78-22.68,1.27-31.34-5.25-4-3-7-7.31-10.88-10.33,5.17,2.55,11.24,2.19,17,1.76l23.24-1.7C199,325.19,215.6,323.72,228.52,314.67Z"/><path class="cls-4" d="M227.85,313.69l.67,1c-12.92,9.05-29.55,10.52-45.31,11.68L160,328.05c-5.74.43-11.81.79-17-1.76l0,0c6.18-.48,15-4.92,20.77-7.31a36,36,0,0,1,20.45-1.44L195.05,314a35.11,35.11,0,0,1,8-1.95c6.26-.52,12.34,2.33,18.62,2.47A21.32,21.32,0,0,0,227.85,313.69Z"/><path class="cls-1" d="M208.22,209.89c3.94-5.14,10.56-8.94,17.48-11.48-3.66,5-3.31,10.93.84,15.38-7.32-.13-14.24-1.12-19.48-3Z"/><path class="cls-1" d="M142.67,210.78l.66.73c-5.06,3.89-11.27,5.8-17.68,6.78,3.25-5.1,1.6-12.76-3.55-16l.39-2.48A34,34,0,0,1,142.67,210.78Z"/><path class="cls-3" d="M117.12,208.67c-.31-.49-1.28-.59-1.52,0A.85.85,0,0,0,117.12,208.67Zm5-6.36c5.15,3.22,6.8,10.88,3.55,16-2.8.44-5.64.69-8.44.85-2.11.13-4.25.21-6.37.17v-.17a13.44,13.44,0,0,1-1.9-17.83l-.18-.74a35.59,35.59,0,0,1,7.7-1.11,32,32,0,0,1,6,.37Z"/><path class="cls-1" d="M110.84,219.14v.17a35.58,35.58,0,0,1-8.67-1.16c-4.86-1.35-9.47-4.28-11.85-8.73a58,58,0,0,1,18.44-8.85l.18.74A13.44,13.44,0,0,0,110.84,219.14Z"/><path class="cls-5" d="M142.67,210.78a34,34,0,0,0-20.18-10.95,32,32,0,0,0-6-.37,35.59,35.59,0,0,0-7.7,1.11,58,58,0,0,0-18.44,8.85c2.38,4.45,7,7.38,11.85,8.73a35.58,35.58,0,0,0,8.67,1.16c2.12,0,4.26,0,6.37-.17,2.8-.16,5.64-.41,8.44-.85,6.41-1,12.62-2.89,17.68-6.78l.7-.55"/><path class="cls-5" d="M262.41,206.47c-.28.17-.56.34-.86.5-4.37,2.47-10.25,4.29-16.69,5.42a97.13,97.13,0,0,1-18.32,1.4c-7.32-.13-14.24-1.12-19.48-3"/><path class="cls-5" d="M225.7,198.4a71.15,71.15,0,0,1,12.59-3.33"/><path class="cls-5" d="M208.22,209.89c3.94-5.14,10.56-8.94,17.48-11.48"/><path class="cls-5" d="M225.7,198.4h0c-3.66,5-3.31,10.93.84,15.38.17.19.36.38.55.57"/><path class="cls-5" d="M238.29,195.07a13.35,13.35,0,0,1,6.4,16.34"/><path class="cls-5" d="M232.23,202.59a1.35,1.35,0,1,0,.51.07c-.54.11-1.05.71-.77,1.18s1.2-.2.73-.48"/><path class="cls-5" d="M117.12,208.67a.14.14,0,0,0,0-.06"/><path class="cls-5" d="M117.12,208.67c-.31-.49-1.28-.59-1.52,0A.85.85,0,0,0,117.12,208.67Z"/><path class="cls-5" d="M115.57,209.2c.19.77,1.61.64,1.66-.16a.53.53,0,0,0-.11-.37"/><path class="cls-5" d="M189.29,221.86c-.88,3.88-.36,7.92.17,11.86.47,3.54,1,7.13,2.46,10.38,2.6,5.66,7.86,9.52,12.21,14s8.09,10.63,6.39,16.62"/><path class="cls-5" d="M191,288a16.11,16.11,0,0,1,12-4.36"/><path class="cls-5" d="M168.51,287.58a14.62,14.62,0,0,0-11.57-3.87"/><path class="cls-5" d="M184.18,317.52A36,36,0,0,0,163.73,319c-5.72,2.39-14.59,6.83-20.77,7.31h0"/><path class="cls-5" d="M184.18,317.52,195.05,314a35.11,35.11,0,0,1,8-1.95c6.26-.52,12.34,2.33,18.62,2.47a21.32,21.32,0,0,0,6.2-.78,21.74,21.74,0,0,0,5.33-2.26,20.42,20.42,0,0,0,3.14-2.25"/><path class="cls-5" d="M234.85,311.92l-.41.52c-8.8,11-18.42,22.43-31.8,26.76-5.61,1.81-11.55,2.25-17.43,2.67-10.81.78-22.68,1.27-31.34-5.25-4-3-7-7.31-10.88-10.33l0,0a19,19,0,0,0-2.73-1.77"/><path class="cls-5" d="M142.94,326.27l.05,0c5.17,2.55,11.24,2.19,17,1.76l23.24-1.7c15.76-1.16,32.39-2.63,45.31-11.68l.3-.21"/><path class="cls-5" d="M244.2,297.9a11,11,0,0,1,2.05,6.66"/><path class="cls-5" d="M296.65,272.82a111,111,0,0,1-10.5,27.73c-6.43,12.34-15.52,23.07-24.53,33.68l-1,1.16C254.85,342.2,249.05,349,243,355.53c-10.71,11.48-22.54,22.28-36.65,29.19s-30.82,9.6-45.69,4.57c-11-3.73-20.21-11.29-29.15-18.71L94,339.48"/><path class="cls-5" d="M297.18,235.43c0,.16.05.32.07.48a111.2,111.2,0,0,1,1.13,25.21"/><path class="cls-5" d="M78.87,73.87a133.09,133.09,0,0,0-20.78,28.07c-4.65,8.4-8.44,17.48-9.26,27.05-1.59,18.33,7.75,36,8.38,54.35.54,15.59-5.19,30.83-5.19,46.43,0,28.9,19.15,53.7,30.91,80.09a287.24,287.24,0,0,1,10.83,29.67c2.5,7.82,4.92,15.66,7.65,23.39,13.94,39.44,36.37,78.32,35.52,119.52q-.09,4.71-.61,9.48"/><path class="cls-5" d="M261.69,336.29c-.5,8.77-1,17.65.7,26.27,3.59,18.37,29.25,32.51,46.88,36.49"/><path class="cls-5" d="M296.65,272.82a7.57,7.57,0,0,0,3.25,2.47,8.67,8.67,0,0,0,11.12-6.1,6.87,6.87,0,0,0,.14-1.43c0-4.25-3.68-8.38-8-8.51"/><path class="cls-5" d="M302,261.8a2.93,2.93,0,0,0-3.65-.68,5.54,5.54,0,0,0-2.63,2.19,8.66,8.66,0,0,0,.9,9.5"/><path class="cls-5" d="M141,181.17c-21.86-16.66-55.13-16.15-76.48,1.16"/><path class="cls-5" d="M253.56,389.46a194.42,194.42,0,0,1-37.44,60"/><path class="cls-5" d="M252.36,456a178.21,178.21,0,0,1,55.3-16.55"/><path class="cls-5" d="M139.25,482.49a42.67,42.67,0,0,0,1.36,9.43c2.16,8.59,6.49,16.76,10,25a150.92,150.92,0,0,1,11.5,73c-1.1,11.82-3.6,23.53-4.38,35.34-.18,2.75-.27,5.51-.23,8.27,0,1-.17,2.39-1.18,2.62s-.82-2.06-.09-1.31"/><path class="cls-5" d="M69.62,491.5c0,1.51.15,3,.28,4.5,2.43,26.09,18.11,49.38,34.18,70.36,17,22.17,35.57,44.6,41.78,71.84q6-6.45,11.89-12.91l1.54-1.67"/><path class="cls-5" d="M108.94,201.31a13.44,13.44,0,0,0,1.9,17.83"/><path class="cls-5" d="M122.1,202.31c5.15,3.22,6.8,10.88,3.55,16-.07.12-.15.24-.23.36"/><path class="cls-5" d="M102.59,61a175.69,175.69,0,0,0,85.6,109.84c16.33,8.83,34,15,50.61,23.17l.7.34A217.47,217.47,0,0,1,261.55,207a221.13,221.13,0,0,1,35.7,28.94,218.21,218.21,0,0,1,15.64,17.39c.8,1,1.59,2,2.37,3"/><path class="cls-5" d="M98.56,58.64a163.26,163.26,0,0,0-26,20.81"/><path class="cls-5" d="M54.67,17.86c-.79.85-1.56,1.72-2.32,2.59A138,138,0,0,0,18.65,107c-.44,18.64,2.92,37.41.25,55.86-3.57,24.56-17.67,47.18-17.9,72-.31,34.87,26.46,64.31,32.56,98.64,4.9,27.59-4,55.83-2.37,83.81A114.25,114.25,0,0,0,69.9,496q2.14,1.86,4.38,3.61"/><path class="cls-5" d="M51.71,21l.64-.58C71.6,3.31,101.57,4.2,127.33,1.89c61.23-5.51,118.54,14.5,158.29,61.4,27,31.82,44.56,70.32,61.66,108.35,7.14,15.9,14.3,31.91,18.39,48.85,4.23,17.49,5.11,35.58,7.39,53.42,3.95,30.91,12.15,61.3,13.69,92.42,2.06,41.5-7.78,82.51-18.12,122.82-.52,2-1,4.09-1.57,6.13"/><path class="cls-5" d="M312.88,252.89c0,.14,0,.27,0,.41.12,5,.13,9.82,0,14.5a225,225,0,0,1-7,50.36c-2.83,11.48-6.45,22.87-7.13,34.67-.92,16.13,3.61,31.49,10.47,46.22,6.1,13.09,14,25.68,21.6,37.87a269.46,269.46,0,0,1,16.84,30.65c8,17.63,12.62,36.2,8.74,54.84a75.28,75.28,0,0,0,12.18-33.26q.39-3.33.46-6.68"/><path class="cls-5" d="M140.62,491.92c31.64,19,81.25,33.15,117.59,26.64s66.42-22.18,89.5-51"/><path class="cls-5" d="M86,205.06a41.21,41.21,0,0,1,38.12-12.57"/><path class="cls-6" d="M204.47,188.81a20.32,20.32,0,0,1,9.45-4.51c1.58-.31.91-2.72-.66-2.42A23,23,0,0,0,202.7,187c-1.23,1.05.55,2.81,1.77,1.77Z"/></g></g></svg>