<svg xmlns="http://www.w3.org/2000/svg" viewBox="0 0 326.35 496.23"><defs><style>.cls-1{fill:#f7e543;}.cls-2{fill:#fff;}.cls-3{fill:#8b5e3c;}.cls-4{fill:#231f20;}.cls-5{fill:#ee8e9a;}.cls-6{fill:#72b9d6;}.cls-7{fill:none;stroke:#231f20;stroke-miterlimit:10;}.cls-8{fill:#fac6ca;}</style></defs><title>faceyellow</title><g id="Layer_2" data-name="Layer 2"><g id="Layer_1-2" data-name="Layer 1"><rect class="cls-1" width="326.35" height="409.7"/></g><g id="Layer_2-2" data-name="Layer 2"><path class="cls-2" d="M78.15,172.08l-.44.29a4,4,0,0,0-4.88-.53,5.51,5.51,0,0,0-2.32,5,5.26,5.26,0,0,0,.8,2.6c1.65,2.49,5.89,2.3,7.61-.14A5.89,5.89,0,0,0,78.15,172.08ZM163.27,77.4a58.39,58.39,0,0,0-41.44,18.5c-7.89,8.55-13,19.24-18,29.75L87,161.29h0c-1,5.44.51,11.44-.58,16.86l.25.05c-2.12,10.76-4.17,21.89-1.66,32.55a57.3,57.3,0,0,0,7.35,16.64l-1.61,1.34c-3,11.59.91,23.69,3.74,35.32A194.83,194.83,0,0,1,98.72,331q-.37,3.47-.88,6.9c-1.38,9.44-3.46,18.77-5.54,28.09l-7.44,33.41c-2,9-4,18.13-7.64,26.66-2.92,6.92-9.31,12.63-16.73,13.72-22.07-9.81-32-36.39-31.79-60.54S37,331.76,40.61,307.88c4.81-31.85,1.67-64.62,7.87-96.23,3.09-15.77,8.47-31,12-46.7,3.38-15.21,5-30.91,10.47-45.49,9.74-25.95,30.83-46.07,53.53-62,13.17-9.22,28.15-17.64,44.22-16.93,5.11-1.2,11,.18,15.72,2.57s10.61,6,15.09,7.35c7,3,12.6,8.69,19.53,11.87,2.89,1.32,6,2.19,8.82,3.61,9.52,4.74,15,14.78,19.83,24.23l-.31.16c13.08,24.81,7.67,55.81,12.75,83.79,2.24,12.38,6.62,24.37,7.75,36.9,1.19,13.07-1.19,26.17-2.44,39.25-4.77,50,7.13,100,9.22,150.2.58,13.85.38,27.91-3.23,41.29a84.09,84.09,0,0,1-45.26,53.69c-.26-3.13-.53-11.51-.8-14.64-10.6,6.76-23.78,9.48-36,6.45,6.44-11.11,13-22.61,14.61-35.36,4.59-36.71-32.51-67-34.14-104-.38-8.61,1.22-17.16,2.1-25.73a82,82,0,0,0,.49-12.23c-.72-15.65-7.49-33.21,1.93-45.73l-1.86-1.44c27.82-19.37,54.06-51.44,58.77-83.89h0c.3-15.53,7.29-30.93,4.84-46.33-2.73-17.08-18.43-31-35.58-32.27v-.18a79.62,79.62,0,0,0-37.29-22.46Z"/><path class="cls-2" d="M200.55,100.3c17.15,1.25,32.85,15.19,35.58,32.27,2.45,15.4-4.54,30.8-4.84,46.33h0c-4.71,32.45-30.95,64.52-58.77,83.89q-3.54,2.47-7.1,4.65c-5.61,3.43-11.62,6.71-18.18,7.05-10.22.53-19.35-6.1-26.84-13.07a169,169,0,0,1-25.82-30.48c-.78-1.17-1.54-2.36-2.28-3.56a57.3,57.3,0,0,1-7.35-16.64c-2.51-10.66-.46-21.79,1.66-32.55l-.25-.05c1.09-5.42-.46-11.42.58-16.86h0l16.89-35.64c5-10.51,10.08-21.2,18-29.75a58.39,58.39,0,0,1,41.44-18.5v.26a79.62,79.62,0,0,1,37.29,22.46Zm12.79,80.79.56-.33c-2.92-3.23-5-7.48-8.92-9.38a10.86,10.86,0,0,0-2.16-.76,15.73,15.73,0,0,0-3-.42,22.21,22.21,0,0,0-5.92.46,23,23,0,0,0-7.93,3.25l-.52.53a33.86,33.86,0,0,0,6.88,5.13,32.06,32.06,0,0,0,3.72,1.83,26.12,26.12,0,0,0,3.43,1.17C204.22,183.83,209.34,183.75,213.34,181.09ZM179.09,229a23.05,23.05,0,0,1,2.26-1.18,29.38,29.38,0,0,1-7.43-1.82c-2.42-1.08-4.49-2.8-6.8-4.09a22.05,22.05,0,0,0-12.29-2.77v0c-8.16-5.26-18.77-3.49-28.32-5.41q-1.11-.21-2.19-.51c.29.7.6,1.4.92,2.1,3.33,7.41,7.81,14.46,14.27,19.33,7.07,5.34,16.88,7.67,25,4.18,5.18-2.22,9.22-6.49,14-9.45Zm-25.23-64,.47-.54a40.07,40.07,0,0,0-6.68-8.33,23,23,0,0,0-2.13-1.82,11.64,11.64,0,0,0-1.4-.92,14.18,14.18,0,0,0-7.58-1.66,15.83,15.83,0,0,0-1.68.13,33.66,33.66,0,0,0-9.1,2.8c2.66,3.4,5.46,6.91,9.13,9.1a15.72,15.72,0,0,0,1.63.85,16.61,16.61,0,0,0,4.44,1.29C145.16,166.53,149.63,165.85,153.86,165Z"/><path class="cls-2" d="M213.9,180.76l-.56.33c-4,2.66-9.12,2.74-13.84,1.48l.11-.43a7.6,7.6,0,0,0,3.15-11.26l.06-.26a10.86,10.86,0,0,1,2.16.76C208.89,173.28,211,177.53,213.9,180.76Z"/><path class="cls-3" d="M197.28,177.76l0-.08a1.71,1.71,0,0,0,1.87-2.67l-.1.07a1.78,1.78,0,1,0-1.79,2.68Zm5.48-6.88a7.6,7.6,0,0,1-3.15,11.26l-.11.43a26.12,26.12,0,0,1-3.43-1.17,32.06,32.06,0,0,1-3.72-1.83A8.33,8.33,0,0,1,194,171l-.06-.32a22.21,22.21,0,0,1,5.92-.46,15.73,15.73,0,0,1,3,.42Z"/><path class="cls-4" d="M199.07,175.08l.1-.07a1.71,1.71,0,0,1-1.87,2.67l0,.08a1.78,1.78,0,1,1,1.79-2.68Z"/><path class="cls-2" d="M193.92,170.66l.06.32a8.33,8.33,0,0,0-1.63,8.59,33.86,33.86,0,0,1-6.88-5.13l.52-.53A23,23,0,0,1,193.92,170.66Z"/><path class="cls-5" d="M154.83,219.11a22.05,22.05,0,0,1,12.29,2.77c2.31,1.29,4.38,3,6.8,4.09a29.38,29.38,0,0,0,7.43,1.82,23.05,23.05,0,0,0-2.26,1.18l-.12-.2q-26.41-6.72-52.61-14.29l.15-.81c9.55,1.92,20.16.15,28.32,5.41Z"/><path class="cls-2" d="M179,228.77l.12.2-.57.35-.17-.28c-5.17.26-9.53,4-14.58,5.12-5.63,1.25-11.45-.85-16.6-3.45a85.09,85.09,0,0,1-21.64-15.58l-.29.13c-.32-.7-.63-1.4-.92-2.1q1.08.3,2.19.51l-.15.81Q152.55,222.06,179,228.77Z"/><path class="cls-5" d="M178.35,229l.17.28c-4.77,3-8.81,7.23-14,9.45-8.14,3.49-17.95,1.16-25-4.18-6.46-4.87-10.94-11.92-14.27-19.33l.29-.13a85.09,85.09,0,0,0,21.64,15.58c5.15,2.6,11,4.7,16.6,3.45C168.82,233,173.18,229.3,178.35,229Z"/><path class="cls-2" d="M101,331.24,98.72,331A194.83,194.83,0,0,0,94.42,264c-2.83-11.63-6.75-23.73-3.74-35.32l1.61-1.34c.74,1.2,1.5,2.39,2.28,3.56a169,169,0,0,0,25.82,30.48c7.49,7,16.62,13.6,26.84,13.07,6.56-.34,12.57-3.62,18.18-7.05q3.56-2.18,7.1-4.65l1.86,1.44c-9.42,12.52-2.65,30.08-1.93,45.73a82,82,0,0,1-.49,12.23l-.46-.05c-6.69,5.07-16.11,3.22-24.42,4.47-6.56,1-12.63,4-19,5.77a49.66,49.66,0,0,1-25.81,0c-.57-.15-1.24-.44-1.28-1A.53.53,0,0,1,101,331.24Z"/><path class="cls-2" d="M154.33,164.42l-.47.54c-4.23.89-8.7,1.57-12.9.9l0-.12a10.16,10.16,0,0,0,4.48-4.64,7.3,7.3,0,0,0-.07-6.34l.13-.49a23,23,0,0,1,2.13,1.82A40.07,40.07,0,0,1,154.33,164.42Z"/><path class="cls-3" d="M145.39,154.76a7.3,7.3,0,0,1,.07,6.34,10.16,10.16,0,0,1-4.48,4.64l0,.12a16.61,16.61,0,0,1-4.44-1.29,15.72,15.72,0,0,1-1.63-.85l.23-.41c-1.79-2.1-1.67-5.29-.63-7.84a13.26,13.26,0,0,1,2.06-3.42v-.36a14.18,14.18,0,0,1,7.58,1.66,11.64,11.64,0,0,1,1.4.92Zm-3.86,4.57a1.94,1.94,0,0,0-.92-2.84v0a1.74,1.74,0,0,0-1.15,0,1.84,1.84,0,1,0,2.08,2.83Z"/><path class="cls-4" d="M140.6,156.51v0a1.85,1.85,0,1,1-1.16,0A1.74,1.74,0,0,1,140.6,156.51Z"/><path class="cls-2" d="M136.54,151.69v.36a13.26,13.26,0,0,0-2.06,3.42c-1,2.55-1.16,5.74.63,7.84l-.23.41c-3.67-2.19-6.47-5.7-9.13-9.1a33.66,33.66,0,0,1,9.1-2.8A15.83,15.83,0,0,1,136.54,151.69Z"/><path class="cls-6" d="M77.71,172.37l.44-.29a5.89,5.89,0,0,1,.77,7.2c-1.72,2.44-6,2.63-7.61.14a5.26,5.26,0,0,1-.8-2.6,5.51,5.51,0,0,1,2.32-5A4,4,0,0,1,77.71,172.37Z"/><path class="cls-7" d="M154.33,164.42a40.07,40.07,0,0,0-6.68-8.33,23,23,0,0,0-2.13-1.82,11.64,11.64,0,0,0-1.4-.92,14.18,14.18,0,0,0-7.58-1.66,15.83,15.83,0,0,0-1.68.13,33.66,33.66,0,0,0-9.1,2.8c2.66,3.4,5.46,6.91,9.13,9.1a15.72,15.72,0,0,0,1.63.85,16.61,16.61,0,0,0,4.44,1.29c4.2.67,8.67,0,12.9-.9"/><path class="cls-7" d="M186,173.91a23,23,0,0,1,7.93-3.25,22.21,22.21,0,0,1,5.92-.46,15.73,15.73,0,0,1,3,.42,10.86,10.86,0,0,1,2.16.76c3.91,1.9,6,6.15,8.92,9.38"/><path class="cls-7" d="M213.34,181.09c-4,2.66-9.12,2.74-13.84,1.48a26.12,26.12,0,0,1-3.43-1.17,32.06,32.06,0,0,1-3.72-1.83,33.86,33.86,0,0,1-6.88-5.13"/><path class="cls-7" d="M212,174.23a24.53,24.53,0,0,0-10.65-6.69,14.89,14.89,0,0,0-12.21,1.65"/><path class="cls-7" d="M125.81,151.28c5.78-2.07,12.11-4.15,17.92-2.17,3.78,1.29,6.78,4.13,9.66,6.9"/><path class="cls-7" d="M190.55,163.49A40,40,0,0,1,204,160a22.9,22.9,0,0,1,7.3.16c5.09,1.13,9,5,12.71,8.69"/><path class="cls-7" d="M159.94,149.1A48.88,48.88,0,0,0,142,139a31.88,31.88,0,0,0-20.38.67"/><path class="cls-7" d="M194,171a8.33,8.33,0,0,0-1.63,8.59"/><path class="cls-7" d="M202.76,170.88a7.6,7.6,0,0,1-3.15,11.26"/><path class="cls-7" d="M136.55,152.05a13.26,13.26,0,0,0-2.06,3.42c-1,2.55-1.16,5.74.63,7.84"/><path class="cls-7" d="M145.39,154.76a7.3,7.3,0,0,1,.07,6.34,10.16,10.16,0,0,1-4.48,4.64"/><path class="cls-7" d="M180.08,173.59c-3.93,7.82-1.19,17.25-2.47,25.9a12.66,12.66,0,0,1-2.46,6.35c-2.81,3.38-7.71,3.94-12.09,4.12"/><path class="cls-7" d="M174.31,209.71a11.7,11.7,0,0,0,6.29-.84"/><path class="cls-7" d="M157.31,204.85a14.75,14.75,0,0,0-3.73-2.84c-1.4-.74-2.9-1.26-4.28-2a6.91,6.91,0,0,1-3.24-3.32,3.57,3.57,0,0,1,1.1-4.23"/><path class="cls-7" d="M199.07,175.09h0a1.78,1.78,0,1,0-1.79,2.68h.06"/><path class="cls-7" d="M199.17,175a1.71,1.71,0,0,1-1.87,2.67"/><path class="cls-7" d="M141,156.71a1.44,1.44,0,0,0-.39-.2,1.74,1.74,0,0,0-1.15,0,1.84,1.84,0,1,0,1.16,0"/><path class="cls-7" d="M136.21,197.23a10.63,10.63,0,0,1-5.49,4.61c-2.24,1-4.63,1.59-6.81,2.69a9.3,9.3,0,0,0-5,5.11"/><path class="cls-7" d="M186.52,218.89a8.71,8.71,0,0,1,1.69,9.14"/><path class="cls-7" d="M154.83,219.08c-8.16-5.26-18.77-3.49-28.32-5.41q-1.11-.21-2.19-.51c.29.7.6,1.4.92,2.1,3.33,7.41,7.81,14.46,14.27,19.33,7.07,5.34,16.88,7.67,25,4.18,5.18-2.22,9.22-6.49,14-9.45l.57-.35a23.05,23.05,0,0,1,2.26-1.18,29.38,29.38,0,0,1-7.43-1.82c-2.42-1.08-4.49-2.8-6.8-4.09a22.05,22.05,0,0,0-12.29-2.77h-.25"/><path class="cls-7" d="M178.35,229c-5.17.26-9.53,4-14.58,5.12-5.63,1.25-11.45-.85-16.6-3.45a85.09,85.09,0,0,1-21.64-15.58"/><path class="cls-7" d="M126.36,214.48q26.19,7.58,52.61,14.29"/><path class="cls-7" d="M197,100.23a34.8,34.8,0,0,1,3.54.07c17.15,1.25,32.85,15.19,35.58,32.27,2.45,15.4-4.54,30.8-4.84,46.33a44.73,44.73,0,0,0,.1,4.48c.88,12.13,6.75,23.69,6.25,35.84-.69,16.59-12.86,30.17-19.28,45.49a69,69,0,0,0-.08,52.56"/><path class="cls-7" d="M231.28,178.9c-4.71,32.45-30.95,64.52-58.77,83.89q-3.54,2.47-7.1,4.65c-5.61,3.43-11.62,6.71-18.18,7.05-10.22.53-19.35-6.1-26.84-13.07a169,169,0,0,1-25.82-30.48c-.78-1.17-1.54-2.36-2.28-3.56a57.3,57.3,0,0,1-7.35-16.64c-2.51-10.66-.46-21.79,1.66-32.55,0-.19.07-.37.11-.56"/><path class="cls-7" d="M90.68,228.72c-3,11.59.91,23.69,3.74,35.32A194.83,194.83,0,0,1,98.72,331q-.37,3.47-.88,6.9c-1.38,9.44-3.46,18.77-5.54,28.09l-7.44,33.41c-2,9-4,18.13-7.64,26.66-2.92,6.92-9.31,12.63-16.73,13.72"/><path class="cls-7" d="M78,172.71a2.88,2.88,0,0,0-.27-.34,4,4,0,0,0-4.88-.53,5.51,5.51,0,0,0-2.32,5,5.26,5.26,0,0,0,.8,2.6c1.65,2.49,5.89,2.3,7.61-.14a5.89,5.89,0,0,0-.77-7.2,5.49,5.49,0,0,0-.81-.72"/><path class="cls-7" d="M164.64,77.39h-1.37a58.39,58.39,0,0,0-41.44,18.5c-7.89,8.55-13,19.24-18,29.75L87,161.29"/><path class="cls-7" d="M168.66,40.56c-16.07-.71-31,7.71-44.22,16.93-22.7,15.9-43.79,36-53.53,62C65.44,134,63.82,149.74,60.44,165c-3.49,15.69-8.87,30.93-12,46.7-6.2,31.61-3.06,64.38-7.87,96.23C37,331.76,29,355.08,28.7,379.22S38.42,430,60.49,439.76"/><path class="cls-7" d="M85.77,178.7a8.45,8.45,0,0,1-14.15,4.43"/><path class="cls-7" d="M87.72,158.54a14.55,14.55,0,0,0-.79,2.74c-1,5.44.51,11.44-.58,16.86a14.22,14.22,0,0,1-.82,2.75"/><path class="cls-7" d="M81.57,125.05c-2-.55-3.5,1.68-4.28,3.56a100.18,100.18,0,0,0-7.56,36.15"/><path class="cls-7" d="M148,60.11C127.8,68.28,111.49,84,98.42,101.48c-3.71,5-7.25,10.15-9.36,16-3.26,9-3.12,19.32-8.5,27.23"/><path class="cls-7" d="M84,140.12c-2,8.31-6.87,15.59-10.73,23.22C60.88,187.81,58.82,216,57,243.42"/><path class="cls-7" d="M194.58,262c-7.53,14.68-4.19,32.28-1.49,48.56a496.42,496.42,0,0,1,6.3,60.84"/><path class="cls-7" d="M163.27,77.66a79.62,79.62,0,0,1,37.29,22.46"/><path class="cls-7" d="M174.37,264.23c-9.42,12.52-2.65,30.08-1.93,45.73a82,82,0,0,1-.49,12.23c-.88,8.57-2.48,17.12-2.1,25.73,1.63,37,38.73,67.29,34.14,104-1.6,12.75-8.17,24.25-14.61,35.36,12.17,3,25.35.31,36-6.45a48.05,48.05,0,0,0,10.88-9.47c11.21-13.28,14.89-32.18,10.77-49.06-2.95-12.1-9.5-23-14.07-34.56s-7.06-25-1.77-36.28"/><path class="cls-7" d="M225.33,480.83c.27,3.13.54,11.51.8,14.64a84.09,84.09,0,0,0,45.26-53.69c3.61-13.38,3.81-27.44,3.23-41.29-2.09-50.2-14-100.19-9.22-150.2,1.25-13.08,3.63-26.18,2.44-39.25-1.13-12.53-5.51-24.52-7.75-36.9-5.08-28,.33-59-12.75-83.79-.64-1.22-1.33-2.43-2.07-3.62"/><path class="cls-7" d="M247.69,90.26a.25.25,0,0,0,0-.07C242.79,80.74,237.34,70.7,227.82,66c-2.84-1.42-5.93-2.29-8.82-3.61-6.93-3.18-12.51-8.87-19.53-11.87"/><path class="cls-7" d="M181.83,74.74c4.74-6.26,13.89-7.73,21.44-5.58s13.89,7.18,20,12.1"/><path class="cls-7" d="M101.88,331.3c.23-.49-.79-.51-.92-.06a.53.53,0,0,0,0,.13c0,.59.71.88,1.28,1a49.66,49.66,0,0,0,25.81,0c6.4-1.74,12.47-4.78,19-5.77,8.31-1.25,17.73.6,24.42-4.47"/><path class="cls-7" d="M76.29,249.06C71,267.68,79,287.16,81,306.41a92.67,92.67,0,0,1-16.28,62.25"/><path class="cls-7" d="M168.66,40.56c5.11-1.2,11,.18,15.72,2.57s10.61,6,15.09,7.35"/><path class="cls-8" d="M135.38,309.54c-3.41-1.12-7.36,2-7.36,5.55s3.6,6.63,7.17,6.31a6.63,6.63,0,0,0,6-5.8,5.8,5.8,0,0,0-5.31-6.1"/><path class="cls-4" d="M135.54,308.93a6.64,6.64,0,0,0-8,5c-.81,3.81,2.42,7.43,6.08,8a7.3,7.3,0,0,0,8-5.51,6.46,6.46,0,0,0-5.82-7.57c-.8-.08-.8,1.17,0,1.25,7.74.76,4.58,12.36-2.6,10.48-2.81-.74-5.23-3.66-4.44-6.67a5.38,5.38,0,0,1,6.41-3.8.63.63,0,0,0,.33-1.21Z"/><path class="cls-4" d="M141,314.44c10.19-4.75,22.38-4.5,31.18-12.12.61-.53-.28-1.41-.89-.88-8.64,7.48-20.89,7.25-30.92,11.92-.73.34-.09,1.42.63,1.08Z"/><path class="cls-4" d="M127.57,313.53c-8.87-4.18-19.09,3.29-27.41-2.34-.66-.45-1.29.63-.63,1.08,8.5,5.75,18.57-1.82,27.41,2.34.72.34,1.36-.74.63-1.08Z"/></g></g></svg>