<svg xmlns="http://www.w3.org/2000/svg" viewBox="0 0 394.06 482.43"><defs><style>.cls-1{fill:#ee8e9a;}.cls-2{fill:#fff;}.cls-3{fill:#e8488a;}.cls-4{fill:#69502a;}.cls-5{fill:#eb96c0;}.cls-6{fill:none;stroke:#231f20;stroke-miterlimit:10;stroke-width:1.41px;}.cls-7{fill:#231f20;}</style></defs><title>girl</title><g id="Layer_2" data-name="Layer 2"><g id="Layer_1-2" data-name="Layer 1"><rect class="cls-1" width="394.06" height="480.59"/></g><g id="Layer_2-2" data-name="Layer 2"><path class="cls-2" d="M160.51,179.2l-.47-.51a24.12,24.12,0,0,0-14.27-7.75,22.58,22.58,0,0,0-4.27-.26,24.89,24.89,0,0,0-5.44.79,40.69,40.69,0,0,0-13,6.26,13.39,13.39,0,0,0,8.38,6.17,25.22,25.22,0,0,0,6.13.82c1.5,0,3,0,4.5-.12,2-.11,4-.29,6-.6C152.53,183.31,156.93,182,160.51,179.2Zm64.43,71.38-.89-.71a15.44,15.44,0,0,1-8.16,2.15c-4.44-.1-8.74-2.12-13.16-1.75a24.68,24.68,0,0,0-5.65,1.38l-7.69,2.53a25.4,25.4,0,0,0-14.46,1c-4,1.69-10.32,4.83-14.69,5.17h0l0,0c2.78,2.13,4.88,5.18,7.7,7.3,6.12,4.61,14.52,4.27,22.16,3.72a52.19,52.19,0,0,0,12.33-1.89C211.91,266.45,218.72,258.36,224.94,250.58ZM244.11,176a153,153,0,0,0-15.59-8.91,4.59,4.59,0,0,0-.5-.24l-.36.74a49.85,49.85,0,0,0-8.9,2.35h0c-4.9,1.8-9.58,4.48-12.36,8.12l-.82.66a46,46,0,0,0,13.77,2.1,69.88,69.88,0,0,0,13-1A38,38,0,0,0,244.11,176Zm75.73,199.56a53.24,53.24,0,0,1-8.61,23.53c2.74-13.19-.56-26.32-6.18-38.79a192.28,192.28,0,0,0-11.91-21.67c-5.36-8.62-11-17.53-15.28-26.78-4.85-10.42-8.06-21.28-7.4-32.69.48-8.35,3-16.4,5-24.52A159.46,159.46,0,0,0,280.43,219c.08-3.31.07-6.7,0-10.25a155.23,155.23,0,0,0-11.06-12.3,78.83,78.83,0,0,1,.8,17.83,3.93,3.93,0,0,0-1.86,1.55,6.12,6.12,0,0,0,.63,6.72h0a78.31,78.31,0,0,1-7.42,19.61c-4.55,8.73-11,16.32-17.35,23.82-.23.28-.47.55-.7.82-4.09,4.82-8.19,9.63-12.5,14.25-7.57,8.12-15.94,15.75-25.91,20.64s-21.8,6.79-32.32,3.23c-7.78-2.64-14.29-8-20.61-13.23l-26.53-22-.14,0c1.77,5.53,3.48,11.08,5.41,16.54,9.86,27.9,25.72,55.39,25.12,84.53l1.64,0a30.33,30.33,0,0,0,1,6.67c1.53,6.08,4.59,11.86,7.09,17.68a106.68,106.68,0,0,1,8.13,51.65c-.78,8.36-2.55,16.64-3.1,25L162.29,481c-4.39-19.27-17.53-35.13-29.54-50.81-11.37-14.84-22.46-31.31-24.18-49.76A80.8,80.8,0,0,1,81.2,324.76C80.08,305,86.34,285,82.87,265.48c-4.31-24.27-23.24-45.09-23-69.76C60,178.18,70,162.18,72.51,144.81c1.88-13.05-.49-26.32-.18-39.5A97.63,97.63,0,0,1,96.16,44.08C109.78,32,131,32.59,149.19,31c43.3-3.9,83.83,10.25,111.94,43.42,19.07,22.5,31.52,49.73,43.61,76.63,5.05,11.24,10.11,22.57,13,34.55,3,12.36,3.61,25.16,5.22,37.77,2.8,21.86,8.6,43.36,9.68,65.37C334.11,318,327.15,347.05,319.84,375.55Z"/><path class="cls-2" d="M293.14,338.62a192.28,192.28,0,0,1,11.91,21.67c-16.33,20.38-37.61,31.46-63.3,36.06S181,391,158.59,377.51h0a30.33,30.33,0,0,1-1-6.67l-1.64,0c.6-29.14-15.26-56.63-25.12-84.53-1.93-5.46-3.64-11-5.41-16.54l.14,0,26.53,22c6.32,5.25,12.83,10.59,20.61,13.23,10.52,3.56,22.34,1.65,32.32-3.23s18.34-12.52,25.91-20.64c4.31-4.62,8.41-9.43,12.5-14.25l.75.64c-.35,6.2-.7,12.48.5,18.58,2.53,13,20.68,23,33.15,25.81C282.17,321.09,287.78,330,293.14,338.62Z"/><path class="cls-2" d="M280.42,208.76c.08,3.55.09,6.94,0,10.25l-1.23,0a6.18,6.18,0,0,0-5.67-6l-.79,1.8a2.07,2.07,0,0,0-2.58-.48,78.83,78.83,0,0,0-.8-17.83A155.23,155.23,0,0,1,280.42,208.76Z"/><path class="cls-2" d="M279.2,219l1.23,0a159.46,159.46,0,0,1-4.93,35.62c-2,8.12-4.56,16.17-5,24.52-.66,11.41,2.55,22.27,7.4,32.69C265.39,309,247.24,299,244.71,286c-1.2-6.1-.85-12.38-.5-18.58l-.75-.64c.23-.27.47-.54.7-.82,6.37-7.5,12.8-15.09,17.35-23.82a78.31,78.31,0,0,0,7.42-19.61,5.37,5.37,0,0,0,2.3,1.75A6.14,6.14,0,0,0,279.1,220,5,5,0,0,0,279.2,219Z"/><path class="cls-3" d="M279.2,219a5,5,0,0,1-.1,1,6.14,6.14,0,0,1-7.87,4.31,5.37,5.37,0,0,1-2.3-1.75h0a62,62,0,0,0,1.23-8.27,2.07,2.07,0,0,1,2.58.48l.79-1.8A6.18,6.18,0,0,1,279.2,219Z"/><path class="cls-3" d="M270.16,214.29a62,62,0,0,1-1.23,8.27,6.12,6.12,0,0,1-.63-6.72A3.93,3.93,0,0,1,270.16,214.29Z"/><path class="cls-4" d="M227.66,167.58a9.44,9.44,0,0,1,4.53,11.55l.12.7a69.88,69.88,0,0,1-13,1,8.19,8.19,0,0,1-.59-10.88h0A49.85,49.85,0,0,1,227.66,167.58Z"/><path class="cls-2" d="M232.19,179.13a9.44,9.44,0,0,0-4.53-11.55l.36-.74a4.59,4.59,0,0,1,.5.24A153,153,0,0,1,244.11,176a38,38,0,0,1-11.8,3.84Z"/><path class="cls-5" d="M220.75,252.16l-.47-.69a15.44,15.44,0,0,0,3.77-1.6l.89.71c-6.22,7.78-13,15.87-22.49,18.93a52.19,52.19,0,0,1-12.33,1.89c-7.64.55-16,.89-22.16-3.72-2.82-2.12-4.92-5.17-7.7-7.3,3.66,1.8,8,1.55,12,1.24l16.44-1.2C199.85,259.6,211.62,258.56,220.75,252.16Z"/><path class="cls-5" d="M220.28,251.47l.47.69c-9.13,6.4-20.9,7.44-32,8.26l-16.44,1.2c-4.06.31-8.35.56-12-1.24l0,0c4.37-.34,10.65-3.48,14.69-5.17a25.4,25.4,0,0,1,14.46-1l7.69-2.53a24.68,24.68,0,0,1,5.65-1.38c4.42-.37,8.72,1.65,13.16,1.75A15.51,15.51,0,0,0,220.28,251.47Z"/><path class="cls-2" d="M206.4,178.06c2.78-3.64,7.46-6.32,12.36-8.12a8.19,8.19,0,0,0,.59,10.88,46,46,0,0,1-13.77-2.1Z"/><path class="cls-2" d="M160,178.69l.47.51c-3.58,2.76-8,4.11-12.51,4.8a8.48,8.48,0,0,0-2.51-11.3l.28-1.76A24.12,24.12,0,0,1,160,178.69Z"/><path class="cls-4" d="M142,177.2c-.22-.35-.91-.42-1.08,0A.61.61,0,0,0,142,177.2Zm3.52-4.5A8.48,8.48,0,0,1,148,184c-2,.31-4,.49-6,.6-1.49.09-3,.15-4.5.12v-.12A9.51,9.51,0,0,1,136.18,172l-.12-.52a24.89,24.89,0,0,1,5.44-.79,22.58,22.58,0,0,1,4.27.26Z"/><path class="cls-2" d="M137.53,184.6v.12a25.22,25.22,0,0,1-6.13-.82,13.39,13.39,0,0,1-8.38-6.17,40.69,40.69,0,0,1,13-6.26l.12.52A9.51,9.51,0,0,0,137.53,184.6Z"/><path class="cls-6" d="M160,178.69a24.12,24.12,0,0,0-14.27-7.75,22.58,22.58,0,0,0-4.27-.26,24.89,24.89,0,0,0-5.44.79,40.69,40.69,0,0,0-13,6.26,13.39,13.39,0,0,0,8.38,6.17,25.22,25.22,0,0,0,6.13.82c1.5,0,3,0,4.5-.12,2-.11,4-.29,6-.6,4.53-.69,8.93-2,12.51-4.8l.49-.38"/><path class="cls-6" d="M244.72,175.64c-.2.12-.4.24-.61.35a38,38,0,0,1-11.8,3.84,69.88,69.88,0,0,1-13,1,46,46,0,0,1-13.77-2.1"/><path class="cls-6" d="M218.76,169.93a49.85,49.85,0,0,1,8.9-2.35"/><path class="cls-6" d="M206.4,178.06c2.78-3.64,7.46-6.32,12.36-8.12"/><path class="cls-6" d="M218.76,169.93h0a8.19,8.19,0,0,0,.59,10.88l.39.4"/><path class="cls-6" d="M227.66,167.58a9.44,9.44,0,0,1,4.53,11.55"/><path class="cls-6" d="M223.38,172.9a1,1,0,1,0,.36,0c-.38.07-.75.5-.55.83s.85-.14.52-.34"/><path class="cls-6" d="M142,177.2a.09.09,0,0,0,0,0"/><path class="cls-6" d="M142,177.2c-.22-.35-.91-.42-1.08,0A.61.61,0,0,0,142,177.2Z"/><path class="cls-6" d="M140.87,177.57c.14.55,1.14.45,1.18-.11a.38.38,0,0,0-.08-.26"/><path class="cls-6" d="M193,186.52a23.67,23.67,0,0,0,.12,8.39,25.14,25.14,0,0,0,1.74,7.34c1.84,4,5.56,6.74,8.63,9.89s5.72,7.52,4.52,11.75"/><path class="cls-6" d="M194.18,233.27a11.4,11.4,0,0,1,8.45-3.08"/><path class="cls-6" d="M178.31,233a10.34,10.34,0,0,0-8.18-2.73"/><path class="cls-6" d="M189.39,254.18a25.4,25.4,0,0,0-14.46,1c-4,1.69-10.32,4.83-14.69,5.17h0"/><path class="cls-6" d="M189.39,254.18l7.69-2.53a24.68,24.68,0,0,1,5.65-1.38c4.42-.37,8.72,1.65,13.16,1.75a15.44,15.44,0,0,0,8.16-2.15,15,15,0,0,0,2.22-1.59"/><path class="cls-6" d="M225.23,250.22l-.29.36c-6.22,7.78-13,15.87-22.49,18.93a52.19,52.19,0,0,1-12.33,1.89c-7.64.55-16,.89-22.16-3.72-2.82-2.12-4.92-5.17-7.7-7.3l0,0a13.29,13.29,0,0,0-1.93-1.25"/><path class="cls-6" d="M160.23,260.36l0,0c3.66,1.8,8,1.55,12,1.24l16.44-1.2c11.14-.82,22.91-1.86,32-8.26L221,252"/><path class="cls-6" d="M231.84,240.3a7.79,7.79,0,0,1,1.45,4.71"/><path class="cls-6" d="M268.93,222.56a78.31,78.31,0,0,1-7.42,19.61c-4.55,8.73-11,16.32-17.35,23.82-.23.28-.47.55-.7.82-4.09,4.82-8.19,9.63-12.5,14.25-7.57,8.12-15.94,15.75-25.91,20.64s-21.8,6.79-32.32,3.23c-7.78-2.64-14.29-8-20.61-13.23l-26.53-22"/><path class="cls-6" d="M269.31,196.12c0,.11,0,.23.05.34a78.83,78.83,0,0,1,.8,17.83"/><path class="cls-6" d="M114.92,81.86a94.36,94.36,0,0,0-14.7,19.86c-3.29,5.94-6,12.36-6.55,19.13-1.12,13,5.48,25.43,5.93,38.43.38,11-3.67,21.81-3.67,32.84,0,20.44,13.54,38,21.86,56.64a203.73,203.73,0,0,1,7.66,21c1.77,5.53,3.48,11.08,5.41,16.54,9.86,27.9,25.72,55.39,25.12,84.53,0,2.22-.18,4.46-.43,6.7"/><path class="cls-6" d="M244.21,267.45c-.35,6.2-.7,12.48.5,18.58,2.53,13,20.68,23,33.15,25.81"/><path class="cls-6" d="M268.93,222.56a5.37,5.37,0,0,0,2.3,1.75A6.14,6.14,0,0,0,279.1,220a5,5,0,0,0,.1-1,6.18,6.18,0,0,0-5.67-6"/><path class="cls-6" d="M272.74,214.77a2.07,2.07,0,0,0-2.58-.48,3.93,3.93,0,0,0-1.86,1.55,6.12,6.12,0,0,0,.63,6.72"/><path class="cls-6" d="M158.84,157.75c-15.46-11.78-39-11.42-54.09.82"/><path class="cls-6" d="M238.46,305.05A137.34,137.34,0,0,1,212,347.5"/><path class="cls-6" d="M237.61,352.11a126.06,126.06,0,0,1,39.11-11.7"/><path class="cls-6" d="M157.62,370.84a30.33,30.33,0,0,0,1,6.67c1.53,6.08,4.59,11.86,7.09,17.68a106.68,106.68,0,0,1,8.13,51.65c-.78,8.36-2.55,16.64-3.1,25-.12,1.95-.19,3.9-.16,5.85,0,.74-.12,1.69-.83,1.86s-.58-1.46-.07-.93"/><path class="cls-6" d="M108.38,377.22c0,1.06.1,2.13.19,3.18,1.72,18.45,12.81,34.92,24.18,49.76,12,15.68,25.15,31.54,29.54,50.81l8.41-9.14c.36-.39.73-.78,1.09-1.18"/><path class="cls-6" d="M136.18,172a9.51,9.51,0,0,0,1.35,12.61"/><path class="cls-6" d="M145.49,172.7A8.48,8.48,0,0,1,148,184c-.05.08-.1.17-.16.25"/><path class="cls-6" d="M131.69,72.77a124.27,124.27,0,0,0,60.54,77.68c11.55,6.24,24,10.59,35.79,16.39a4.59,4.59,0,0,1,.5.24A153,153,0,0,1,244.11,176a156.21,156.21,0,0,1,36.31,32.77c.57.7,1.12,1.4,1.68,2.11"/><path class="cls-6" d="M128.84,71.09a115.77,115.77,0,0,0-18.38,14.72"/><path class="cls-6" d="M97.8,42.25c-.56.6-1.1,1.22-1.64,1.83a97.63,97.63,0,0,0-23.83,61.23c-.31,13.18,2.06,26.45.18,39.5C70,162.18,60,178.18,59.85,195.72c-.22,24.67,18.71,45.49,23,69.76C86.34,285,80.08,305,81.2,324.76a80.8,80.8,0,0,0,27.37,55.64c1,.88,2.05,1.72,3.1,2.55"/><path class="cls-6" d="M95.71,44.49l.45-.41C109.78,32,131,32.59,149.19,31c43.3-3.9,83.83,10.25,111.94,43.42,19.07,22.5,31.52,49.73,43.61,76.63,5.05,11.24,10.11,22.57,13,34.55,3,12.36,3.61,25.16,5.22,37.77,2.8,21.86,8.6,43.36,9.68,65.37,1.46,29.34-5.5,58.35-12.81,86.85l-1.11,4.34"/><path class="cls-6" d="M280.41,208.47c0,.1,0,.19,0,.29.08,3.55.09,6.94,0,10.25a159.46,159.46,0,0,1-4.93,35.62c-2,8.12-4.56,16.17-5,24.52-.66,11.41,2.55,22.27,7.4,32.69,4.31,9.25,9.92,18.16,15.28,26.78a192.28,192.28,0,0,1,11.91,21.67c5.62,12.47,8.92,25.6,6.18,38.79a53.24,53.24,0,0,0,8.61-23.53c.18-1.57.29-3.14.33-4.72"/><path class="cls-6" d="M158.59,377.51C181,391,216.05,401,241.75,396.35s47-15.68,63.3-36.06"/><path class="cls-6" d="M120,174.64a29.15,29.15,0,0,1,27-8.89"/><path class="cls-7" d="M203.74,163.15a14.36,14.36,0,0,1,6.69-3.19c1.11-.22.64-1.93-.47-1.71a16.22,16.22,0,0,0-7.47,3.65c-.87.74.39,2,1.25,1.25Z"/></g></g></svg>