<svg xmlns="http://www.w3.org/2000/svg" viewBox="0 0 612 939.51"><defs><style>.cls-1,.cls-3{fill:#fff;}.cls-2{fill:#fac6ca;}.cls-3{stroke:#231f20;stroke-miterlimit:10;stroke-width:1.22px;}.cls-4{fill:#ee8e9a;}</style></defs><title>pink6</title><g id="Layer_2" data-name="Layer 2"><g id="Layer_1-2" data-name="Layer 1"><rect class="cls-1" y="0.54" width="612" height="938.97"/><rect class="cls-2" x="39.29" width="572.71" height="204.9"/><circle class="cls-3" cx="80.93" cy="43.47" r="34.5"/><circle class="cls-3" cx="80.93" cy="43.47" r="29.21"/><path class="cls-4" d="M82.27,52.72l1.16,1A13.89,13.89,0,0,1,60.19,43.47,13.89,13.89,0,0,1,83.43,33.2l-1.16,1a12.34,12.34,0,0,0-20.52,9.22,12.34,12.34,0,0,0,20.52,9.25Z"/><path class="cls-4" d="M92.49,29.91a5,5,0,0,1,5.05,5,5.16,5.16,0,0,1-2.15,3.92A6.74,6.74,0,0,1,99,41.1a9,9,0,0,1,2.72,6.6A9.27,9.27,0,0,1,99,54.36a8.3,8.3,0,0,1-6,2.67H87.67V29.91Zm-3.3,1.52v6.94h3.69a3.65,3.65,0,0,0,2.17-.95,3.2,3.2,0,0,0,1-2.48,3.36,3.36,0,0,0-1-2.52,3.57,3.57,0,0,0-2.56-1Zm0,8.57V55.52h3.74a7.25,7.25,0,0,0,4.88-2.32,7.67,7.67,0,0,0,2.26-5.51,7.7,7.7,0,0,0-7.7-7.7Z"/></g></g></svg>