<svg xmlns="http://www.w3.org/2000/svg" viewBox="0 0 188.36 58.16"><defs><style>.cls-1{fill:#231f20;}</style></defs><title>portfolio</title><g id="Layer_2" data-name="Layer 2"><g id="Layer_1-2" data-name="Layer 1"><path class="cls-1" d="M.92,20.68C.54,26.07.46,31.48.47,36.88H3.32c-.22-4.36-.71-8.88.54-13.15A14.18,14.18,0,0,1,5.47,20Q8,18.8,8,21c1,1.65.65,5.67.7,7.61s3.11,2.46,3.4.46a37,37,0,0,1,1.22-5.9c.48-1.55,1.94-6.09,3.68-6.67,2.58-.85,1.72,5.64,1.63,7.11-.14,2.53-.46,5.06-.45,7.6,0,2.32.09,5.21,2.35,6.51,1.94,1.12,3.86.36,5.07-1.34,1.55-2.17-2.18-4.43-3.63-2.12.9-1.43.05-6.37.12-8.11a49.09,49.09,0,0,0-.09-8.4c-.31-2.37-.9-5.39-3.89-5.43-6.63-.09-9,11.53-9.41,16.29h3.46c-.25-3.28-.41-15.57-6.89-12.57S-.13,31.44.47,36.88c.2,1.78,3,1.86,2.85,0C3,31.43,2.55,26,1.81,20.56,1.74,20,1,20.2.92,20.68Z"/><path class="cls-1" d="M26.61,14.54c-1.09,4.05-3.14,15.91,4.07,15.6C37.26,29.86,39,19.31,39,14.43c0-2.8-4.33-2.8-4.34,0,0,8.9-.07,17.81-.93,26.67-.52,5.29-.38,11.89-7.33,12.15a19.5,19.5,0,0,1-13.1-4.46,2.45,2.45,0,1,0-3,3.87c6.47,4.7,21,9.55,25.8,0,2.38-4.72,2.2-11.2,2.5-16.33.43-7.3.41-14.62.38-21.93H34.62c0,2.34-.34,10.35-3.25,11.32-4.18,1.4-3.65-9-3.59-11a.6.6,0,0,0-1.17-.16Z"/><path class="cls-1" d="M51.72,15.35c-.18,9.9-.2,19.95-1.11,29.82l4-.55-.24-1.49c-.41-2.6-4.42-1.51-4,1.1l.26,1.48c.38,2.26,4.31,1.76,4-.54-1.22-9.85-1.56-19.91-2.06-29.82a.47.47,0,0,0-.94,0Z"/><path class="cls-1" d="M53.25,16.14a3.47,3.47,0,0,1,4.51-.5,4.82,4.82,0,0,1,1.78,4.74C59.22,23,56.91,27,53.75,26l.58,4.39c.32-.21.63-.42.94-.65,2.46-1.72.29-5.64-2.39-4.09l-1,.59a2.43,2.43,0,0,0,1.22,4.48c6.09.17,10.49-6.12,9.32-11.92-.92-4.57-6.61-7.53-10-3.44-.48.57.34,1.41.82.82Z"/><path class="cls-1" d="M75.12,15.44c-2.27-4-6.44,0-7.78,2.64-1.9,3.65-2.53,9.72,1.38,12.36,8.2,5.55,15.15-14.78,6-18.13-2.44-.89-4.19,3.17-1.79,4.24,3,1.36,1.68,11.09-1.74,11-2.2-.06-2.43-3.8-2.33-5.24a11.47,11.47,0,0,1,1-3.81c.38-.86,2.7-5.36,4.33-2.52a.53.53,0,0,0,.91-.53Z"/><path class="cls-1" d="M83.66,13.34A59.26,59.26,0,0,1,81.25,29c-.64,1.94,2.63,2.83,3,.84,1.28-6.1,2.3-12,7.88-15.67,2.39-1.57.19-5.41-2.26-3.86-6.38,4-8.71,11.93-8.71,19.11L84.29,29a110.68,110.68,0,0,1-.49-15.67.07.07,0,0,0-.14,0Z"/><path class="cls-1" d="M98.31,4.87a72.29,72.29,0,0,0-2.59,13.76c-.37,3.93-1.21,9.15.46,12.9,2.57,5.79,9.66,5.09,12.9.49,1.9-2.7-2.56-5.3-4.43-2.59-4.12.38-5.94-1.08-5.48-4.41L99,23.2q-.23-3.19-.21-6.4c0-3.94.34-7.85.71-11.77.07-.71-1-.81-1.22-.16Z"/><path class="cls-1" d="M95.09,21.83c2.44,0,4.9-.15,7.33-.3,1.79-.12,1.27-2.86-.31-2.33a20.13,20.13,0,0,1-7,1,.82.82,0,0,0,0,1.64Z"/><path class="cls-1" d="M113.68,37.32c.36-6.25-.39-12.53-.22-18.8.07-2.76-.11-6,.78-8.62,1.25-3.68,4.42-4.4,7.81-5.19,3-.7,1.75-5.28-1.28-4.65-6.09,1.26-10.14,4.27-10.92,10.67-1,8.46.28,18.59,2.45,26.78a.71.71,0,0,0,1.38-.19Z"/><path class="cls-1" d="M111,15.2a20.06,20.06,0,0,1,3.77-.63,1.22,1.22,0,1,0-.63-2.29,19.89,19.89,0,0,1-3.61,1.21A.89.89,0,0,0,111,15.2Z"/><path class="cls-1" d="M125.84,17.37c-6.91-4.59-13.79,8.57-7.47,13.21,3.82,2.81,7.65-.75,9-4.3,1.21-3,2.46-12.83-3.74-10.94-2.66.81-2.31,5.24.68,5-.75-.19-1,.1-.68.87a11.08,11.08,0,0,1-.15,1.82,10.78,10.78,0,0,1-.68,2.44c-.78,1.73-2.31,2.79-3.37.61-1.43-3,1.81-10.34,5.76-7.71.64.42,1.24-.61.6-1Z"/><path class="cls-1" d="M136.12,3.87c-.81,5.19-1.59,10.38-2.37,15.57-.49,3.22-1.45,6.88-.93,10.11.9,5.57,6.24,5.2,9.49,1.7,2.39-2.58-1.67-6.47-3.81-3.81s-1.8-2.75-1.78-4c0-1.85.13-3.71.19-5.57.17-4.61.35-9.22.5-13.84,0-.72-1.18-.91-1.29-.17Z"/><path class="cls-1" d="M145.6,17.68a31.22,31.22,0,0,1-1.74,11.38c-1.18,3.23,5.15,4.26,4.5,0-.57-3.7-.89-7.64-1.09-11.38-.06-1.07-1.71-1.08-1.67,0Z"/><path class="cls-1" d="M144.76,9.36a1,1,0,0,0,0-2,1,1,0,0,0,0,2Z"/><path class="cls-1" d="M161.51,16.48c-2.16-3.57-6.65-.89-8.57,1.56-2.95,3.79-3.23,9.83.17,13.45,4,4.26,9.83,1.75,11.81-3.12s2-11.42-2.63-14.68c-2.61-1.82-5.93,2.41-3.43,4.43,1.74,1.41,1.91,3.2,1.69,5.33-.19,1.85-1,6.4-4,5-1.92-.91-2.41-4-2.26-5.82a8.87,8.87,0,0,1,.95-3.22c.64-1.22,3.6-5.43,5.6-2.56.27.38.88,0,.63-.37Z"/><path class="cls-1" d="M172.09,32a1,1,0,0,0,0-2,1,1,0,0,0,0,2Z"/><path class="cls-1" d="M179.33,30.79l.1.13a1.18,1.18,0,0,0,1.3.53,1.15,1.15,0,1,0-1.3-1.69l-.1.14a.84.84,0,0,0,0,.89Z"/><path class="cls-1" d="M186.67,29.8l-.13.3a.92.92,0,0,0,.88,1.16c.54,0,1.12-.6.88-1.16l-.12-.3a.79.79,0,0,0-1.51,0Z"/><path class="cls-1" d="M83.33,13a64.9,64.9,0,0,0-1.51,12c-.13,1.75,2.57,1.72,2.72,0A124.7,124.7,0,0,0,85,11.68c0-2-3.21-2-3.12,0,.19,4.42.16,8.83,0,13.25h2.72a65.45,65.45,0,0,0-.87-12,.18.18,0,0,0-.34,0Z"/></g></g></svg>