<svg xmlns="http://www.w3.org/2000/svg" viewBox="0 0 388.15 71.25"><defs><style>.cls-1{fill:#231f20;}</style></defs><title>portfolio2</title><g id="Layer_2" data-name="Layer 2"><g id="Layer_2-2" data-name="Layer 2"><path class="cls-1" d="M2.5,55.94A509.4,509.4,0,0,0,3.59,2.36L1.26,3,23.64,43a1.27,1.27,0,0,0,2.29-.29A151.66,151.66,0,0,1,49.09,2.15L47,1.26,45.15,55.93c0,1.61,2.45,1.6,2.5,0L49.46,1.26c0-1-1.45-1.74-2.13-.88A155.2,155.2,0,0,0,23.52,42l2.28-.3L3.42,1.73a1.26,1.26,0,0,0-2.33.63A509.4,509.4,0,0,1,0,55.94c-.11,1.61,2.39,1.6,2.5,0Z"/><path class="cls-1" d="M57.8,25.86a129.69,129.69,0,0,1,14.39,23c.51,1,2,.63,2.29-.3a115.55,115.55,0,0,1,12-24.35L84.32,23Q72.66,46,61.74,69.35c-.68,1.45,1.48,2.72,2.16,1.26Q74.82,47.26,86.48,24.24A1.25,1.25,0,0,0,84.32,23,118.33,118.33,0,0,0,72.07,47.92l2.28-.29A133,133,0,0,0,59.57,24.09c-1-1.27-2.75.51-1.77,1.77Z"/><path class="cls-1" d="M119.63,22.48A392.72,392.72,0,0,1,122,69.62h2.5l0-1.68a1.25,1.25,0,0,0-2.5,0l0,1.68a1.25,1.25,0,0,0,2.5,0,392.72,392.72,0,0,0-2.38-47.14c-.18-1.58-2.68-1.6-2.5,0Z"/><path class="cls-1" d="M149.71,21.88c-9.7-3.26-21.13-1.24-25.4,9-3.66,8.8-1.56,19.89,7.89,23.71,9.2,3.73,20.38-.3,24.36-9.54a16.45,16.45,0,0,0-10.14-22.26c-1.53-.51-2.18,1.9-.66,2.41a14,14,0,0,1,8,20c-4.16,7.78-14.6,10.53-22.25,6.26-6.93-3.87-7.63-13-4.77-19.76,3.84-9,13.89-10.29,22.35-7.45,1.53.52,2.18-1.9.66-2.41Z"/><path class="cls-1" d="M186.89,21.83c-8.95-5-18.53,7.58-20.31,15.34-2.32,10,5,18.68,15.19,18.84,9.91.16,20.53-7.09,21.77-17.35,1.4-11.64-8.72-17.13-18.76-18.29-1.6-.18-1.59,2.32,0,2.5,7.79.9,16.2,4.43,16.37,13.55.16,8.26-6.92,14.54-14.43,16.49-8.25,2.15-18-2.16-18.13-11.66-.07-6.41,8.6-21.95,17-17.27,1.41.79,2.67-1.37,1.26-2.15Z"/><path class="cls-1" d="M212.46,35.94l-.89,18.55c-.08,1.62,2.38,1.59,2.5,0,.61-8.36,1-32.29,14.35-30.41,1.57.22,2.25-2.18.66-2.41C213,19.41,212.33,44.15,211.57,54.49h2.5L215,35.94c.08-1.61-2.42-1.61-2.5,0Z"/><path class="cls-1" d="M239,10.09c1.43.6.2,9.27.15,10.88l-.3,10.72-.62,22.42c0,1.63,2.36,1.58,2.5,0l.24-2.67c.14-1.61-2.36-1.6-2.5,0l-.24,2.67h2.5l.81-29.24c.12-4.28,1-9.39.38-13.65-.27-1.85-.47-2.79-2.26-3.54-1.48-.62-2.12,1.8-.66,2.41Z"/><path class="cls-1" d="M233.38,24.74A55.94,55.94,0,0,0,251,24.53c1.58-.28.91-2.69-.67-2.42a51.65,51.65,0,0,1-16.32.22c-1.58-.23-2.26,2.18-.67,2.41Z"/><path class="cls-1" d="M271.52,4.72c-8.1-4.33-12.22,5.39-12.07,11.9.33,13.43,1.64,26.92,2.47,40.34.1,1.6,2.6,1.61,2.5,0l-1.59-25.71C262.56,27,259,.87,270.25,6.88c1.42.75,2.69-1.4,1.27-2.16Z"/><path class="cls-1" d="M254.73,25.68a120,120,0,0,0,18-.12c1.59-.13,1.6-2.63,0-2.5a120,120,0,0,1-18,.12c-1.61-.11-1.6,2.39,0,2.5Z"/><path class="cls-1" d="M297.49,22.63c-6.67-8.38-17.79,2-20.81,8.68-4.15,9.13-1.11,19.88,9,23a17.67,17.67,0,0,0,21.91-11.53,17,17,0,0,0-13.55-21.55c-1.58-.28-2.25,2.12-.67,2.41,18,3.21,14.89,29.46-3.18,28.93a13.17,13.17,0,0,1-12.6-16.27,20.13,20.13,0,0,1,5.28-9.75c3.16-3.25,9.22-6.72,12.82-2.2,1,1.26,2.76-.52,1.77-1.76Z"/><path class="cls-1" d="M319.07,2.94q.27,26.26,1.54,52.52c.08,1.6,2.58,1.61,2.5,0q-1.28-26.25-1.54-52.52a1.25,1.25,0,0,0-2.5,0Z"/><path class="cls-1" d="M334.2,25l1.24,15.62.62,7.81c.08,1.06,1,5.18.38,6l1.71-.45-.31-.17.45,1.71.11-.25c.66-1.45-1.49-2.72-2.16-1.26l-.11.24a1.29,1.29,0,0,0,.45,1.71l.31.18a1.3,1.3,0,0,0,1.71-.45c.58-.8.34-1.41.35-2.38,0-3.2-.53-6.56-.78-9.76L336.7,25c-.13-1.59-2.63-1.61-2.5,0Z"/><path class="cls-1" d="M336.23,14.69a1.25,1.25,0,0,0,0-2.5,1.25,1.25,0,0,0,0,2.5Z"/><path class="cls-1" d="M368.92,22.32c-9.22-7.07-19.7,8.66-20.55,16.52-1.28,11.79,9,19.54,20,19.62,10.38.08,20.47-7.67,19.71-18.76-.7-10.37-13.07-19.86-23.17-17.85-1.58.31-.91,2.72.66,2.41,8.59-1.71,19.89,7.23,20.06,16.12s-7.44,15-15.76,15.54c-8.55.55-18.34-4.25-19.11-13.67-.52-6.54,8.16-24.45,16.87-17.77,1.27,1,2.52-1.19,1.26-2.16Z"/></g></g></svg>