<svg xmlns="http://www.w3.org/2000/svg" viewBox="0 0 268.54 69.09"><defs><style>.cls-1{fill:#231f20;}</style></defs><title>port</title><g id="Layer_2" data-name="Layer 2"><g id="Layer_2-2" data-name="Layer 2"><path class="cls-1" d="M0,20.74A390.87,390.87,0,0,1,2.39,67.88h2.5l0-1.68a1.25,1.25,0,0,0-2.5,0l0,1.68a1.25,1.25,0,0,0,2.5,0A390.87,390.87,0,0,0,2.51,20.74c-.18-1.58-2.68-1.6-2.5,0Z"/><path class="cls-1" d="M30.1,20.15c-9.7-3.26-21.14-1.24-25.41,9C1,38,3.13,49.05,12.58,52.88c9.2,3.72,20.38-.3,24.36-9.54A16.45,16.45,0,0,0,26.81,21.07c-1.53-.51-2.19,1.91-.67,2.41a14,14,0,0,1,8,20C29.94,51.29,19.5,54,11.86,49.77,4.92,45.9,4.22,36.73,7.09,30,10.92,21,21,19.72,29.43,22.56c1.53.51,2.19-1.9.67-2.41Z"/><path class="cls-1" d="M67.28,20.09c-9-5-18.53,7.59-20.32,15.35-2.32,10.05,5,18.67,15.19,18.84,9.91.16,20.53-7.09,21.77-17.35,1.41-11.65-8.71-17.14-18.76-18.29-1.59-.19-1.58,2.31,0,2.5C73,22,81.36,25.57,81.53,34.68c.16,8.27-6.91,14.55-14.42,16.5C58.85,53.32,49.06,49,49,39.52c-.06-6.41,8.6-22,17-17.27,1.4.78,2.67-1.38,1.26-2.16Z"/><path class="cls-1" d="M92.85,34.2,92,52.76c-.08,1.61,2.38,1.59,2.5,0,.61-8.36,1-32.29,14.35-30.41,1.58.22,2.26-2.19.67-2.41C93.39,17.68,92.71,42.41,92,52.76h2.5l.9-18.56c.08-1.61-2.42-1.6-2.5,0Z"/><path class="cls-1" d="M119.39,8.36c1.43.6.2,9.27.15,10.88L119.25,30l-.62,22.42c0,1.63,2.36,1.57,2.5,0l.23-2.68c.14-1.6-2.36-1.59-2.5,0l-.23,2.68h2.5l.81-29.24c.12-4.29,1-9.39.37-13.65-.26-1.85-.47-2.79-2.25-3.54-1.48-.62-2.13,1.79-.67,2.41Z"/><path class="cls-1" d="M113.76,23a56,56,0,0,0,17.66-.22c1.59-.27.92-2.68-.66-2.41a52,52,0,0,1-16.33.22c-1.57-.23-2.25,2.18-.67,2.41Z"/><path class="cls-1" d="M151.9,3c-8.09-4.32-12.22,5.39-12.06,11.9.32,13.44,1.63,26.93,2.46,40.34.1,1.6,2.6,1.61,2.5,0l-1.59-25.7c-.27-4.3-3.81-30.39,7.43-24.38,1.42.76,2.68-1.4,1.26-2.16Z"/><path class="cls-1" d="M135.11,23.94a120,120,0,0,0,18-.11c1.59-.13,1.61-2.63,0-2.5a120,120,0,0,1-18,.11c-1.6-.11-1.6,2.39,0,2.5Z"/><path class="cls-1" d="M177.87,20.89c-6.67-8.38-17.78,2-20.81,8.69-4.15,9.13-1.11,19.87,9,23A17.66,17.66,0,0,0,188,41.09a17,17,0,0,0-13.55-21.56c-1.57-.28-2.25,2.13-.66,2.41,18,3.22,14.88,29.46-3.19,28.94A13.17,13.17,0,0,1,158,34.61a20.09,20.09,0,0,1,5.28-9.75c3.16-3.26,9.22-6.72,12.82-2.2,1,1.26,2.76-.52,1.77-1.77Z"/><path class="cls-1" d="M199.46,1.21q.27,26.26,1.53,52.51c.08,1.6,2.58,1.61,2.5,0Q202.23,27.48,202,1.21a1.25,1.25,0,0,0-2.5,0Z"/><path class="cls-1" d="M214.58,23.23l1.24,15.62.62,7.81c.09,1.06,1,5.18.38,6l1.71-.45-.3-.17.45,1.71.11-.24c.65-1.45-1.5-2.73-2.16-1.26l-.11.24a1.27,1.27,0,0,0,.45,1.71l.3.17a1.28,1.28,0,0,0,1.71-.45c.59-.8.34-1.41.35-2.37,0-3.21-.52-6.57-.78-9.76l-1.47-18.55c-.12-1.6-2.63-1.61-2.5,0Z"/><path class="cls-1" d="M216.61,13a1.25,1.25,0,0,0,0-2.5,1.25,1.25,0,0,0,0,2.5Z"/><path class="cls-1" d="M249.3,20.59c-9.21-7.07-19.7,8.65-20.55,16.51-1.28,11.8,9,19.54,20,19.63,10.37.07,20.46-7.68,19.71-18.76-.71-10.37-13.08-19.86-23.18-17.85-1.58.31-.91,2.72.66,2.41,8.59-1.71,19.9,7.23,20.07,16.12s-7.45,15-15.76,15.54c-8.55.55-18.35-4.25-19.11-13.67C230.65,34,239.34,16.07,248,22.75c1.28,1,2.52-1.19,1.26-2.16Z"/></g></g></svg>