<svg xmlns="http://www.w3.org/2000/svg" viewBox="0 0 433.22 690.67"><defs><style>.cls-1,.cls-2{fill:#211f1e;}.cls-1{stroke:#2b2827;}.cls-1,.cls-7,.cls-8,.cls-9{stroke-miterlimit:10;}.cls-3{fill:#2b2827;}.cls-4{fill:#121111;}.cls-5{fill:#3d332e;}.cls-6{fill:#231f20;}.cls-7,.cls-8,.cls-9{fill:none;stroke:#231f20;}.cls-7{stroke-width:4px;}.cls-8{stroke-width:2px;}.cls-9{stroke-width:3px;}.cls-10{fill:#fff;}</style></defs><title>pug</title><g id="Layer_2" data-name="Layer 2"><g id="Layer_2-2" data-name="Layer 2"><path class="cls-1" d="M243.79,192.8a5.26,5.26,0,0,0-4.34-5.18,7.17,7.17,0,0,0-2.5-.16c-.21-.23-.39-.3-.56,0a10.81,10.81,0,0,0,.1-1.18c.1-4.39-4.36-5.8-7.41-4.14-.1-.16-.21-.32-.32-.47a4.61,4.61,0,0,0-2.38-4.42,13.43,13.43,0,0,0-10.48-1,9.42,9.42,0,0,0-5.66,2,7.81,7.81,0,0,0-1.57,1.74,11.91,11.91,0,0,0-4.7,5,12.15,12.15,0,0,0-2.25,1.55,16.08,16.08,0,0,0-7.15,7c-4.86,1.5-7.74,7.83-2.66,12.08,1.69,1.42,3.32,1.48,5.44,1.63,2.59.19,3.44,1,5.65,2.23a7.2,7.2,0,0,0,5.55.65,13.07,13.07,0,0,0,3.18,2.12c2,.94,4.13,1.37,6.12,2.28,1.67.75,2.75,1.56,4.73,1.57a7.2,7.2,0,0,0,2.68-.56,4.65,4.65,0,0,0,5.31-1,17.7,17.7,0,0,1,1.59-1.36,7.93,7.93,0,0,0,2.23-1.52l1.24-.79c1.87-1.18,3.31-2.84,5.11-4.1a5.72,5.72,0,0,0,.53-.45,6.83,6.83,0,0,0,4.55-4.84,8.58,8.58,0,0,0,1-1.49A5.06,5.06,0,0,0,243.79,192.8Z"/><path class="cls-2" d="M231.26,183.61a9,9,0,0,0-2.27-4c-.8-.82-1.86-1.94-1.24-2.91a117.75,117.75,0,0,0,12.61,12.56c.48-1-.19-2.23-.9-3.13a25.63,25.63,0,0,0-7.49-6.49,39.92,39.92,0,0,1,9.88,9.61c1.28,1.77,2.5,3.73,4.46,4.7a1.14,1.14,0,0,0,.8.15c.68-.19.55-1.21.22-1.84a16.34,16.34,0,0,0-6.32-6.66l7.15,8.32a4.46,4.46,0,0,0,1.43,1.24,1.5,1.5,0,0,0,1.76-.27c.58-.69.08-1.8-.66-2.31s-1.67-.68-2.45-1.14"/><path class="cls-3" d="M233.67,183c-.48-1.33-3.56-5.18-3.42-6.2L226,178.52a127.89,127.89,0,0,0,12.62,12.56,2.53,2.53,0,0,0,4.26-1.77c.65-5.12-5.87-9.48-9.62-11.78-2.8-1.7-5.11,2.49-2.53,4.32a43.54,43.54,0,0,1,9.75,9.79c1.57,2.1,3.26,4.39,6,4.92a2.62,2.62,0,0,0,2.83-1.15c2.89-4.45-3.7-9.82-7-11.92-2.51-1.6-4.79,1.87-3,3.93,2.47,2.88,7.56,12.09,12.55,10.1,5.22-2.08.58-6.89-2.29-8.19s-5.46,3-2.53,4.31q2,1.62,3-1.44l-2.38-2.77-4.77-5.54-3,3.92c.4.26,5.73,4.26,5.2,5.08l2.82-1.15c-2.67-.52-5.21-5.77-7.06-7.78a47.22,47.22,0,0,0-7.47-6.43l-2.53,4.32c2,1.2,7.52,4.57,7.15,7.46l4.27-1.77A129,129,0,0,1,229.51,175c-1.59-1.83-4-.16-4.26,1.77-.41,3.2,2.56,4.68,3.6,7.53,1.09,3,5.92,1.7,4.82-1.33Z"/><path class="cls-2" d="M219.49,174.47c-3.35.32-6.35,2.17-9,4.21-5.9,4.53-10.81,10.22-16.71,14.73-2.12,1.62-4.57,3.44-4.75,6.1a1,1,0,0,1-.63-.31c-.14-.2,0-.56.22-.54-.53,1,.45,2.09,1.34,2.76a65.57,65.57,0,0,0,13.71,7.84l-2.85-.56,6.55,1.43a144.61,144.61,0,0,1,19.81,5.31l-.17,1.2c1.94-.32,3.14-2.21,4.46-3.67,3.32-3.66,8.4-5.12,12.34-8.1,2.19-1.67,4.15-4.26,3.57-7a1.14,1.14,0,0,0-1.07,1.47,1.46,1.46,0,0,0,1.77.81,2,2,0,0,0,1.29-1.59,3.07,3.07,0,0,0-3.24,2.29,1.59,1.59,0,0,0,2.36-.13,5.77,5.77,0,0,0-3.11,1.33,1,1,0,0,0-.46.83c.07.65,1,.64,1.64.42a14.15,14.15,0,0,0,6.63-4.31c1.63-2.11,2.24-5.18.9-7.5a4.11,4.11,0,0,1,.13,4.56c.72.39,1.6-.42,1.6-1.23a3.45,3.45,0,0,0-1.11-2.11c-3.9-4.3-8.61-7.75-13.3-11.17-5.57-4.08-11.24-8.2-17.72-10.55-.88-.32-2-.58-2.67,0a2,2,0,0,0,0,2.62"/><path class="cls-4" d="M218.82,172.06c-7.48,1.28-13.15,7.23-18.46,12.22-3,2.8-6,5.39-9.18,8-2.25,1.88-4,3.66-4.57,6.58l3.67-1.5-.63-.31,1.24,2.16,0-.35L189.62,201l.25-.19-3.76-2.16c-.25,2.92,1.82,4.4,4,6a69.11,69.11,0,0,0,12.28,6.8l1.93-4.57-2.85-.55c-3.13-.61-4.49,4.13-1.33,4.82,8.87,1.93,17.8,3.67,26.36,6.74l-1.74-3.08-.17,1.21c-.24,1.72,1.06,3.75,3.07,3.07,2.38-.8,3.48-2.07,5.17-3.86,2.47-2.61,5.39-4.06,8.46-5.79,4.44-2.52,9-5.83,8.58-11.48a2.54,2.54,0,0,0-3.77-2.16c-6.23,3.18,2.34,11,5.41,4.12.7-1.56-.07-3.93-2.15-3.77-2.51.21-4.33,1.15-5.4,3.53a2.56,2.56,0,0,0,.89,3.42,4.13,4.13,0,0,0,4.89-.14,2.51,2.51,0,0,0-1.92-4.56,6.94,6.94,0,0,0-5.07,3.31,2.52,2.52,0,0,0,.39,3c3.05,2.66,7.46,0,10.11-2.22,3.43-2.91,5-7.33,3.24-11.6l-4.57,1.92.13,2a2.54,2.54,0,0,0,2.16,3.76c3.93.18,4.75-3.82,3-6.63-3.43-5.57-10.75-9.8-16-13.56-4.88-3.54-12-9.71-18.33-10.11-4.22-.28-5.73,3.15-4.11,6.65,1.35,2.92,5.66.38,4.32-2.52-.47,1-.08,1.52,1.15,1.55a25.91,25.91,0,0,1,2.84,1.28c1.28.64,2.52,1.37,3.75,2.12,2.71,1.65,5.29,3.49,7.86,5.35s5.3,3.82,7.83,5.88c1.34,1.1,2.67,2.24,3.92,3.44l1.24,1.22c.69,1.56,1.51,1.68,2.47.33l2.16,3.77a7.41,7.41,0,0,0-.13-7.09c-1.26-2.48-5.68-.71-4.57,1.93a5.07,5.07,0,0,1-.63,5.34c-.34.45-4.19,3.77-4.37,3.61l.39,3a2.16,2.16,0,0,1,2.09-1l-1.93-4.57.16.13.9,3.42,1.08-1-2.16-3.76.87.27.64,2.43-.08,0-3.76-2.16c.34,5.13-6.48,7.18-10,9.32a25.09,25.09,0,0,0-4.1,2.93c-1.39,1.26-2.54,3.43-4.41,4.06l3.08,3.08.17-1.21a2.6,2.6,0,0,0-1.75-3.08c-8.56-3.06-17.49-4.8-26.36-6.73l-1.33,4.82,2.85.56c2.58.5,4.7-3.36,1.93-4.57-2-.88-14-5.69-13.81-8.44a2.52,2.52,0,0,0-3.77-2.16c-2,1.5-1.91,4,.42,5.17a2.53,2.53,0,0,0,3.67-1.49c.62-2.93,3.32-4.33,5.45-6.06,2.44-2,4.73-4.15,7-6.3,4.72-4.44,9.61-9.8,16.26-10.94,3.17-.54,1.83-5.36-1.33-4.82Z"/><path class="cls-2" d="M222.8,170.94"/><path class="cls-4" d="M222.8,173.44c3.21,0,3.22-5,0-5s-3.23,5,0,5Z"/><path class="cls-5" d="M108.31,170.55c-1.58,2.8-2.74,10.12,2,10.91,4.59.75,4.06-6.65,3.11-9.25a1.27,1.27,0,0,0-2.29-.3,8.34,8.34,0,0,0-.66,9.36,1.26,1.26,0,0,0,1.71.45c3.58-2.5,2.67-7.13,1-10.57a1.27,1.27,0,0,0-2-.26,10.23,10.23,0,0,0-2.42,7.76,1.26,1.26,0,0,0,1.88,1.07c2.9-1.95,2.21-6.28,1.6-9.29a1.26,1.26,0,0,0-2.09-.55,16.39,16.39,0,0,0-3.77,7.17,1.25,1.25,0,0,0,2.42.66,21,21,0,0,0,.84-8.31,1.26,1.26,0,0,0-2.33-.63,53.45,53.45,0,0,0-4.07,8.95l2.41.66a72,72,0,0,0,1-8.41c.08-1.18-1.83-1.78-2.32-.63a91.45,91.45,0,0,0-3.27,8.77l2.42.66,1.63-8.49a1.25,1.25,0,0,0-2.41-.66l-2.89,8.13,2.46.33,1-7.65c.2-1.48-2-1.56-2.45-.33l-2.72,7.5,2.41.66,1.14-8a1.25,1.25,0,0,0-2.41-.67l-2.33,7.73,2.45.33c.2-2.43.47-4.81.83-7.23a1.25,1.25,0,0,0-2.41-.66l-2.31,7.32,2.45.33.22-6.59a1.25,1.25,0,0,0-2.45-.33l-1.32,5.89,2.41.66c.25-1.69.56-3.32,1-5a1.26,1.26,0,0,0-2.42-.67,48.5,48.5,0,0,1-1.48,4.71l2.46.33.59-4.81c.18-1.43-2.08-1.64-2.45-.33a25.51,25.51,0,0,1-1.6,4.54l2.29,1a18.54,18.54,0,0,0,.44-5.9,1.26,1.26,0,0,0-2.46-.33c-2,5.43-3.14,10.3-1,15.85a37,37,0,0,0,8.19,12.33,1.26,1.26,0,0,0,2.09-1.22L97.9,183.93l-2.29,1,4.28,9.72c.56,1.28,2.81.35,2.28-1l-5.1-12.73c-.48-1.18-2.61-1.2-2.46.34A30.75,30.75,0,0,0,96,188a1.25,1.25,0,0,0,2.41-.67,31.18,31.18,0,0,0-1.87-6.75c-.49-1.22-2.5-1.18-2.46.34a26.39,26.39,0,0,0,1.15,7.16,1.25,1.25,0,0,0,2.41-.66A100.56,100.56,0,0,0,95.46,177a1.25,1.25,0,0,0-2.45.34,27.6,27.6,0,0,0,1.88,11,1.25,1.25,0,0,0,2.45-.33,23.47,23.47,0,0,0-1.11-8.81c-.34-1.08-2.2-1.3-2.41,0a14.88,14.88,0,0,0,3.85,13.14,1.26,1.26,0,0,0,2.13-.89,58,58,0,0,0-1.26-14.14c-.25-1.39-2.51-1.06-2.46.33a45.1,45.1,0,0,0,2.53,13.46,1.26,1.26,0,0,0,2.46-.33,72.17,72.17,0,0,0-.58-11.48c-.2-1.56-2.66-1.62-2.5,0a93.76,93.76,0,0,0,2.06,12.23,1.26,1.26,0,0,0,2.46-.33,85.44,85.44,0,0,0-.12-10.37c-.11-1.59-2.59-1.62-2.5,0A63.77,63.77,0,0,0,101.76,193a1.26,1.26,0,0,0,2.46-.33l0-12.89h-2.5A109.85,109.85,0,0,0,104,191.8a1.26,1.26,0,0,0,2.46-.34l.08-12.38-2.46.34,2.28,11.21c.29,1.42,2.42,1,2.46-.33l.32-10.39h-2.5a82.84,82.84,0,0,0,1.82,10.26c.36,1.48,2.3,1,2.45-.33l1.26-10.55h-2.5L111,189.67a1.25,1.25,0,0,0,2.5,0l1.06-12.74H112l1.31,10.26a1.25,1.25,0,0,0,2.5,0c.27-2.52-.16-9.51,1.44-11.38l-2.13-.88,1,11.4a1.25,1.25,0,0,0,2.5,0l1.24-12.56-2.46.33,1.44,10.42c.19,1.42,2.46,1,2.45-.33a71.66,71.66,0,0,1,.83-11.61l-2.45-.33L121,183.86a1.25,1.25,0,0,0,2.5,0l.33-11.8h-2.5l1.13,11.09a1.25,1.25,0,0,0,2.5,0,101,101,0,0,1,1-11.52h-2.41l1.73,10.31c.26,1.51,2.32.95,2.46-.33l1.09-9.86-2.46.33,1.74,9.67c.26,1.47,2.36,1,2.46-.33l.82-10.9-2.46.33,1.38,8.8c.23,1.43,2.43,1,2.46-.33l.14-7.26-2.45.34,1.51,7.22c.3,1.45,2.36,1,2.45-.34l.5-7.2-2.45.34,1.28,7.69c.23,1.41,2.46,1,2.45-.33a71.13,71.13,0,0,1,.32-7.15l-2.46.33a39.14,39.14,0,0,1,1.45,6.14c.22,1.45,2.4,1,2.46-.33l.21-5.56-2.45.34,1.16,4.77c.33,1.34,2.58,1.09,2.46-.34-.17-1.95-.26-3.86-.29-5.82l-2.32.63c2.36,5.35-1,12-2.74,17.11-.49,1.44,1.51,2,2.29,1a23.37,23.37,0,0,0,4.48-10.8c.19-1.27-1.61-2.36-2.28-1a66.92,66.92,0,0,1-6.75,11.11c-.75,1,.71,2.39,1.71,1.71a6.39,6.39,0,0,0,1.86-1.65l-2.13-.88c.22,3.42-5.82,6.79-8.15,8.33-3.33,2.21-7.17,4-11.22,4.07-6.92.16-17.75-5.31-17.06-13.16l-2.13.88q3.42,4.08,6.55,8.38a1.26,1.26,0,0,0,2.33-.63,14.05,14.05,0,0,0-.44-6l-2.41.66,1.5,3.63a1.26,1.26,0,0,0,2.41,0,7.56,7.56,0,0,0,.39-3.4l-2.46.33,1.41,5.21c.36,1.32,2.58,1.11,2.46-.33A15.61,15.61,0,0,0,105,192c-.56-1.24-2.24-.46-2.33.63a9.15,9.15,0,0,0,1,5.29,1.28,1.28,0,0,0,1.71.45c2.41-1,1.29-4.29.46-6.09a1.27,1.27,0,0,0-2.29.3,7.63,7.63,0,0,0,1.93,6.84,1.25,1.25,0,0,0,2-.26,7.74,7.74,0,0,0-.14-7.63,1.26,1.26,0,0,0-2.33.63c-.11,3.35.36,5.93,3.62,7.29a1.24,1.24,0,0,0,1.41-.58,9.74,9.74,0,0,0,.8-7.74,1.26,1.26,0,0,0-2.41,0c-.89,3.55-.46,6.43,2.58,8.61a1.26,1.26,0,0,0,1.83-.75,16.46,16.46,0,0,0,.74-10.3,1.25,1.25,0,0,0-1.53-.87c-4,1.69-.44,8.47,1.33,10.69a1.25,1.25,0,0,0,1.21.32l1.17-.23a1.25,1.25,0,0,0,.88-.87,19.77,19.77,0,0,0-.06-11,1.25,1.25,0,0,0-2.45.33,14.15,14.15,0,0,0,2.34,9.5c.53.82,2.08.83,2.28-.3a15.47,15.47,0,0,0-1.18-9.55,1.26,1.26,0,0,0-2.29.3A13.73,13.73,0,0,0,117.91,198a1.27,1.27,0,0,0,2.16,0c1.88-3.71,1.76-7.35,1.28-11.4-.18-1.55-2.55-1.65-2.5,0a31.62,31.62,0,0,0,1.84,9.85,1.27,1.27,0,0,0,1.83.75c3.4-1.78,1.71-8.79,1.19-11.8-.24-1.37-2.6-1.07-2.46.33a38,38,0,0,0,1.53,7.53,1.26,1.26,0,0,0,2.28.3c1.87-2.54.88-7.53.79-10.49h-2.5a24.4,24.4,0,0,0,1.76,7.27,1.25,1.25,0,0,0,2.45-.33l.87-9.46h-2.5a55.59,55.59,0,0,0,1.55,7.85c.3,1.09,2.23,1.28,2.41,0l1-6.84-2.45-.33a18.61,18.61,0,0,0,1.16,6.21,1.26,1.26,0,0,0,2.41,0,34.56,34.56,0,0,0,1.15-6.84h-2.5l.45,5.4c.11,1.3,2.18,1.81,2.46.33l1-5.25H132.1l.72,3a1.26,1.26,0,0,0,2.41,0l1.13-3.34-2.46-.33-.14,3.43c-.24,1.57,2.15,2.26,2.41.67a13.21,13.21,0,0,1,.87-3.62l-2.46-.33A15.5,15.5,0,0,1,128,192.14l1.71,1.71c5-6.66,10.11-14.28,9.28-23a19,19,0,0,0-3.73-9.59c-1.92-2.56-3.84-6.21-6.82-7.66-5.55-2.68-13.68-1.89-19.08.64-7.13,3.34-13.58,10.24-17.07,17.25A1.26,1.26,0,0,0,94,173.19c3.53-1.82,6.84,1.47,10.18,2,2.26.35,3.95-.55,6.15-.78,5.87-.59,11,4.4,16.75,2.87,7.76-2,8.36-14.45,5.34-20.27-.75-1.46-2.79-.18-2.16,1.26l1.56,3.55c.6,1.37,2.53.33,2.28-1l-.41-2.12-2.28,1c3.8,5.83,5.27,12.44,6.62,19.18.29,1.44,2.38,1,2.45-.33.17-3.19,0-11.73-3.7-13.36-3-1.32-4.6,2.75-4.6,5a1.26,1.26,0,0,0,2.33.63l.51-.88-2,.25s1.14,1,1.29.7l-.77.2c-.16.78-.31,1.57-.47,2.35a27.89,27.89,0,0,1-5,10.08l2-.25c-1.3-1-.92-6.6-1-8.16l-.55-7.63c-.08-1.13-1.73-1.82-2.33-.63l-1.6,3.2,2.33.63a15.23,15.23,0,0,1,1-5l-2.29.3c.51.79,1.05,1.56,1.63,2.32.93,1.28,3.1,0,2.15-1.27-.57-.75-1.11-1.52-1.62-2.32a1.26,1.26,0,0,0-2.28.3,24.06,24.06,0,0,0-1.13,5.67,1.26,1.26,0,0,0,2.33.63l1.6-3.19-2.33-.64.89,12.39c.13,1.91-.17,3.91,1.42,5.17a1.29,1.29,0,0,0,2-.26c3-4.14,6.6-10.15,5.77-15.54a1.24,1.24,0,0,0-1.2-.92l0,.1a1.26,1.26,0,0,0-2,.26l-.51.88,2.33.63,2.35.32a13.19,13.19,0,0,1,.73,3.16,22,22,0,0,1,.22,4.93l2.46-.34c-1.39-6.95-2.95-13.76-6.88-19.77a1.25,1.25,0,0,0-2.28,1l.41,2.13,2.29-1L132.39,157l-2.16,1.26c2.49,4.8,2,16.56-5.68,16.78-4.22.12-7.84-3.26-12.11-3.33a27,27,0,0,0-4.37.69c-3.92.55-5-.42-8.4-1.53-2.55-.85-4.53-1.09-7,.16l1.71,1.71a39.17,39.17,0,0,1,12.76-14.42c4.89-3.25,13.21-5.52,19-2.88,2.55,1.17,4.43,4.05,6.18,6.2a17.27,17.27,0,0,1,4.24,11.12c0,7.55-4.73,14-9,19.83-.74,1,.72,2.42,1.71,1.71a18.14,18.14,0,0,0,7.85-13.69c.14-1.46-2-1.62-2.45-.33a13.22,13.22,0,0,0-.87,3.61l2.41.67a12.56,12.56,0,0,0,.23-4.1,1.25,1.25,0,0,0-2.45-.33l-1.13,3.33h2.41l-.72-3a1.26,1.26,0,0,0-2.41,0l-1,5.25,2.45.34-.45-5.4a1.25,1.25,0,0,0-2.5,0,30.5,30.5,0,0,1-1.06,6.18H132a15.65,15.65,0,0,1-1.07-5.55c0-1.34-2.25-1.78-2.46-.33l-1,6.83h2.41a49.38,49.38,0,0,1-1.46-7.18,1.25,1.25,0,0,0-2.5,0l-.87,9.46,2.46-.33a21.08,21.08,0,0,1-1.67-6.61c-.15-1.57-2.55-1.63-2.5,0,.06,2.11.88,7.42-.45,9.23l2.29.29a33.46,33.46,0,0,1-1.44-6.86l-2.45.33c.15.88,1.51,8.17,0,9l1.84.75a29.41,29.41,0,0,1-1.75-9.19h-2.5c.42,3.51.73,6.86-.94,10.14h2.16a11.24,11.24,0,0,1-2.4-9l-2.28.3a12.3,12.3,0,0,1,.93,7.63l2.29-.3a12.09,12.09,0,0,1-2-8.24l-2.46.33c.2.71,1.58,8,.51,7.95-1.32-.11-2.11-5.08-2-5.14l-1.54-.87a14.21,14.21,0,0,1-.74,9l1.84-.75a4.81,4.81,0,0,1-1.43-5.78h-2.41q1.4,4.68-.92.36l-2.33.63.15,5.11,2-.25L106,193.26l-2.28.3.44,2.67,1.71.45-.67-4-2.33.63,1.05,4.11,2.46-.34-1.42-5.2a1.25,1.25,0,0,0-2.45.33l-.3,2.73h2.41l-1.5-3.62c-.6-1.44-2.86-.94-2.41.66a12.91,12.91,0,0,1,.35,5.32l2.33-.63c-2.22-3-4.52-6-6.94-8.89-.77-.91-2.05-.09-2.14.89-.81,9.26,10.53,15.49,18.71,15.68,5.39.13,10.45-2.32,14.72-5.4,3.1-2.23,8.28-5.18,8-9.52-.07-1-1.38-1.77-2.14-.88l-1.35,1.25,1.71,1.71a66.92,66.92,0,0,0,6.75-11.11l-2.29-1a22.09,22.09,0,0,1-4.23,10.19l2.29,1c2.1-6.07,5.25-12.74,2.47-19-.51-1.17-2.34-.53-2.33.63,0,2,.12,3.87.29,5.82l2.45-.33-1.16-4.77a1.26,1.26,0,0,0-2.46.33l-.21,5.56,2.45-.33a39.14,39.14,0,0,0-1.45-6.14,1.25,1.25,0,0,0-2.45.33,71.13,71.13,0,0,0-.32,7.15l2.46-.33-1.28-7.7c-.25-1.46-2.37-1-2.46.33l-.5,7.2,2.46-.33-1.51-7.22c-.3-1.41-2.43-1-2.46.33l-.14,7.26,2.45-.33-1.38-8.8c-.23-1.48-2.35-1-2.45.33l-.82,10.9,2.45-.33-1.74-9.68c-.27-1.5-2.31-.95-2.45.34l-1.09,9.86,2.45-.33L126,171a1.26,1.26,0,0,0-2.41,0,107.88,107.88,0,0,0-1.12,12.18H125l-1.13-11.09a1.25,1.25,0,0,0-2.5,0l-.33,11.8h2.5l-1.27-11.61c-.14-1.26-2.22-1.85-2.46-.33a76.37,76.37,0,0,0-.92,12.27l2.46-.33-1.44-10.42c-.2-1.5-2.32-1-2.45.33l-1.24,12.56h2.5l-1-11.4c-.09-1-1.36-1.78-2.13-.89-2.51,2.92-1.8,9.56-2.18,13.15h2.5l-1.31-10.26a1.25,1.25,0,0,0-2.5,0L111,189.67h2.5l-1.31-10.38a1.25,1.25,0,0,0-2.5,0l-1.26,10.55,2.46-.33a78.18,78.18,0,0,1-1.73-9.6,1.25,1.25,0,0,0-2.5,0l-.32,10.39,2.45-.33-2.28-11.22c-.28-1.4-2.44-1.05-2.45.33L104,191.46l2.46-.33a102.54,102.54,0,0,1-2.17-11.39c-.2-1.54-2.49-1.66-2.5,0l0,12.89,2.45-.34a59.17,59.17,0,0,1-1.78-11.46h-2.5A85.44,85.44,0,0,1,100,191.2l2.45-.33a89,89,0,0,1-2-11.57H98a72.17,72.17,0,0,1,.58,11.48l2.45-.33a42.94,42.94,0,0,1-2.44-12.8l-2.45.34a54.49,54.49,0,0,1,1.17,13.47l2.13-.88a12.19,12.19,0,0,1-3.2-10.71H93.82a21.7,21.7,0,0,1,1,8.15l2.46-.34a26.47,26.47,0,0,1-1.79-10.37l-2.46.33a100.38,100.38,0,0,1,2.17,10.45l2.41-.66a24.74,24.74,0,0,1-1.06-6.5l-2.45.33A31,31,0,0,1,96,188l2.41-.67a26.41,26.41,0,0,1-1.29-6.09l-2.46.33,5.11,12.73,2.28-1-4.27-9.71c-.57-1.29-2.73-.37-2.28,1L100,198.17,102.1,197a34.61,34.61,0,0,1-7.26-10.61c-2.26-5.35-1.17-9.9.71-15.14l-2.45-.33a11.79,11.79,0,0,1-.35,5.24c-.29,1.3,1.7,2.33,2.28,1a41.93,41.93,0,0,0,1.85-5.14l-2.46-.33-.59,4.81c-.19,1.49,2,1.56,2.45.34.58-1.57,1.06-3.1,1.49-4.71l-2.42-.67c-.39,1.67-.7,3.3-.95,5s2.06,2.27,2.41.66l1.32-5.88-2.46-.34-.22,6.59a1.26,1.26,0,0,0,2.46.33l2.31-7.32-2.41-.66q-.59,3.93-.92,7.89c-.12,1.45,2.06,1.64,2.46.33l2.33-7.72-2.41-.67-1.14,8a1.25,1.25,0,0,0,2.41.66l2.72-7.5-2.46-.33-1,7.65c-.19,1.48,2,1.57,2.46.33l2.88-8.13-2.41-.66-1.64,8.49a1.25,1.25,0,0,0,2.42.66,86,86,0,0,1,3-8.17l-2.33-.63a65.24,65.24,0,0,1-.91,7.75,1.25,1.25,0,0,0,2.41.66A50.79,50.79,0,0,1,109.5,170l-2.33-.63a19.47,19.47,0,0,1-.76,7.65l2.42.66a13.92,13.92,0,0,1,3.11-6.07l-2.08-.55c.25,1.25,1.11,5.42-.45,6.48l1.88,1.08a7.09,7.09,0,0,1,1.69-6l-2-.25c.89,1.81,2.21,5.56-.07,7.15l1.71.45a6.11,6.11,0,0,1,.66-6.84l-2.28-.3a7.1,7.1,0,0,1,.5,4.73c-2.34-1.83-2.69-3.76-1.07-5.79a1.25,1.25,0,0,0-2.16-1.26Z"/><path class="cls-5" d="M117.12,167.63a3.81,3.81,0,0,0-.08-2.89,2.54,2.54,0,0,0-4.18-1.1,10.38,10.38,0,0,0-3.74,8.05c-.09,2.54,3.42,3.32,4.66,1.26a8.69,8.69,0,0,0,1.14-6.77c-.42-2.31-3.45-2.19-4.57-.6a6.88,6.88,0,0,0-1.36,5.18,2.53,2.53,0,0,0,4.66,1.26c1.87-2.56,2.07-7.22-1.41-8.6-4-1.59-6.13,3.93-6.54,6.87-.31,2.19,2.32,4.52,4.18,2.43a8.87,8.87,0,0,0,2.13-8.94,2.52,2.52,0,0,0-4.18-1.1,13.87,13.87,0,0,0-4.19,9.44c-.14,2.15,2.84,3.32,4.27,1.77,2.54-2.76,3.86-8.42,0-10.67a2.52,2.52,0,0,0-2.53,0c-3,1.81-4.09,5.26-4.25,8.57a2.53,2.53,0,0,0,4.27,1.77,7.51,7.51,0,0,0,1.26-8.6,2.46,2.46,0,0,0-2.15-1.24c-3.88,0-6,5-6.69,8.15-.46,2.26,2.41,4.46,4.17,2.44a9.68,9.68,0,0,0,2.44-8.45,2.51,2.51,0,0,0-3.68-1.49,9.7,9.7,0,0,0-4.26,8.1c-.07,2.6,3.35,3.24,4.66,1.26a9.53,9.53,0,0,0,1.67-7c-.28-2.06-2.57-3.41-4.27-1.77-2.41,2.32-5.74,7.57-2.76,10.64a2.48,2.48,0,0,0,2.43.64c3.29-1,3.24-5,2.75-7.86a2.51,2.51,0,0,0-4.18-1.11c-3.65,4.48-2.06,10.33,1,14.77a2.54,2.54,0,0,0,4.57-.59,9.41,9.41,0,0,0-.45-8.44c-1-2-4-1.33-4.57.6-.93,3-.79,9.3,3.6,9.55s4.9-6.72,5-9.72c.09-2.75-4.53-3.49-4.91-.66s-.85,9.31,3.34,9.71c4.42.43,4.68-6.59,4.54-9.41-.16-3.29-4.62-3.13-5,0a15.37,15.37,0,0,0,1.36,8.4c.75,1.74,3.51,1.53,4.32,0a14.9,14.9,0,0,0,1.86-9c-.28-2.7-4.06-3.52-4.91-.67a13.36,13.36,0,0,0,.16,8.72,2.53,2.53,0,0,0,3.67,1.5c3.5-2.1,4.29-7.5,5.62-11.09l-4.91-.67a62.5,62.5,0,0,1,.37,7.86c0,2.65,3.3,3.16,4.66,1.26,2.25-3.15,3.17-7.3,4.47-10.93l-4.82-1.33-1.7,9.28c-.57,3.12,4,4.49,4.82,1.33s1.53-6.23,2.08-9.41a2.5,2.5,0,0,0-4.82-1.33,65,65,0,0,0-2.26,8.08c-.49,2.32,2.37,4.36,4.18,2.44,2.58-2.76,3.74-7,5.28-10.42l-4.57-1.92q-.93,4.46-1.59,9c-.37,2.51,3.31,4.78,4.57,1.93a70.94,70.94,0,0,0,3.14-8.5l-4.91-.66-.52,6.51c-.2,2.4,3.65,3.52,4.66,1.27l3.61-8.1-4.66-1.27-.33,7.32c-.13,2.91,4.08,3.27,4.91.67.68-2.12,1.41-4.14,2.29-6.18l-4.66-1.26c.12,2.18.35,4.31.67,6.47s3.62,2.36,4.57.6a26.63,26.63,0,0,0,2.93-8.32c.54-3.14-4.23-4.5-4.82-1.33a16.62,16.62,0,0,0,.1,7.09c.44,2,3.71,2.6,4.57.59,1.42-3.32,2.59-12-3.23-11.95-4.53.08-5.26,7.07-1.52,8.79a2.57,2.57,0,0,0,3-.39c2.6-2.73,2.8-9.6-2.06-10.07-3.83-.38-6.68,5.15-4.56,8.11,3.18,4.45,7-.85,6.57-4.46-.47-4.18-4.63-6.57-7.84-3.15-2.38,2.54-2.66,9.24,2.07,9.34s5.28-7.63,2.86-10.32c-3.56-4-8,1.2-8.46,4.85-.46,3.44,3,8.28,6.34,4.63,2.82-3.1,1.33-10.78-3.59-10.4-5.29.41-7.55,9.63-2.68,12a2.52,2.52,0,0,0,2.52,0c3.11-2.11,4-8.34,1.16-11.15-4.23-4.21-8.69,2.43-9,6.29s3.11,8.2,6.94,5.18c3-2.37,3.59-9,.41-11.47-4-3.09-9.27,1.9-10.5,5.64-1,3,.33,9.58,4.9,7.26,3.8-1.93,2.15-8.93-1.18-10.35-5-2.14-8,4.64-8.24,8.44a2.5,2.5,0,0,0,2.5,2.5c4-.53,5.35-5.86,2.76-8.86-4-4.61-9.5,1.79-11.18,5.27l4.57,1.92c.94-4.26-2.49-7.08-6.37-4.77l3.68,2.83c1.28-3.75,7.3-6.43,10.74-7.53,2.53-.81,5.8-1.66,8.37-.57,1.94.81,3.6,3,4.94,4.56,1.64,1.89,4.91-.12,4.17-2.44-2.4-7.56-17.54-9.24-22.4-3.32-3.09,3.76-2,9.56-1.52,14a51.64,51.64,0,0,0,5.3,17.94,2.53,2.53,0,0,0,4.32,0,14.16,14.16,0,0,0,2.34-8.06,2.52,2.52,0,0,0-4.66-1.26,22.48,22.48,0,0,0-2.92,10.65,2.52,2.52,0,0,0,4.66,1.26,7.72,7.72,0,0,0,1.1-5.25c-.35-2.73-3.92-3.48-4.91-.67a16.12,16.12,0,0,0-.91,6.81,2.66,2.66,0,0,0,1.84,2.41l.69.28a2.39,2.39,0,0,0,2.43-.64,11,11,0,0,0,3-8.66c-.18-2.36-3.35-3.53-4.66-1.26-1.72,3-4.07,9.37.1,11.33a2.59,2.59,0,0,0,3.42-.9,19.32,19.32,0,0,0,3.63-8.77,2.5,2.5,0,0,0-4.82-1.33,14.75,14.75,0,0,0-1.07,6.4,2.51,2.51,0,0,0,4.91.66,31.28,31.28,0,0,0,1.67-7.06c.4-3.18-4.6-3.15-5,0a29.4,29.4,0,0,0-.18,5.93,2.53,2.53,0,0,0,4.27,1.77c2.61-2.54,3.07-6.7,4.08-10.09l-4.91-.66-.51,6.92c-.22,3,4,3.12,4.91.67l3-7.76-4.91-.67c0,2.21,0,4.39-.07,6.59s2.85,3.41,4.26,1.77l1.68-1.94-4.27-1.77a22.28,22.28,0,0,1,0,4.76c-.28,3,4,3.14,4.91.66a15,15,0,0,1,1.27-2.87l-4.66-1.26.38,2.92c.25,1.94,2.65,3.55,4.27,1.76a12.1,12.1,0,0,0,1.63-2.19l-4.57-.6c.8,4.35-8.49,7.43-11.52,8.48-5.25,1.82-10.7.88-12.33-5l-4.82,1.33a9.82,9.82,0,0,0,5.24,6.39,2.56,2.56,0,0,0,3.67-1.5,10.41,10.41,0,0,0,.12-8.05c-1.09-3-5.56-1.84-4.82,1.33,1.62,6.93,11.2,4.91,8.5-1.54-1-2.46-4.86-2.37-4.91.66-.06,3.47.53,6.12,3.42,8.14a2.5,2.5,0,0,0,3-.39,8.21,8.21,0,0,0,2.14-5.82c0-3.32-4.6-3.1-5,0-.3,2.35.18,5.09,3.06,5.5,2.69.39,4.53-2.25,5.59-4.3l-4.57-1.93c-.87,2.2-.79,4.24,1.07,5.84a2.55,2.55,0,0,0,3,.39,27.75,27.75,0,0,0,7-7.53l-4.57-.59a7.62,7.62,0,0,1,.21,3.22c-.13,2,2.91,3.45,4.27,1.76a22.54,22.54,0,0,0,3.07-4.84l-4.65-1.26-.34,2.85c-.3,2.52,3.54,3.32,4.66,1.26a21.13,21.13,0,0,0,2.38-13.59c-.23-1.7-2.41-2.14-3.67-1.49-2.58,1.33-3.39,3.58-2.82,6.34a2.53,2.53,0,0,0,4.57.59,7.7,7.7,0,0,0,1-4.42c-.24-3.19-5.24-3.22-5,0l-.3,1.9,4.57.6.53-.7-3.68-1.49a15.36,15.36,0,0,1-1.88,9.74l4.66,1.26.34-2.85c.28-2.43-3.65-3.45-4.66-1.26a13.25,13.25,0,0,1-2.3,3.83l4.27,1.77a15.79,15.79,0,0,0-.39-4.55c-.49-2.2-3.48-2.32-4.57-.6a20.91,20.91,0,0,1-5.24,5.73l3,.39c-.41-.13-.34-.45.21-1,1-2.63-3.28-4.43-4.57-1.93l.67,1.33h-5l-.67,2.29,3-.4a4.51,4.51,0,0,1-1-3.82l-4.91.67,1.14-1.12L104.12,192a7,7,0,0,1-.12,5.39l3.67-1.49a4.33,4.33,0,0,1-2.94-3.4c-.93-3.07-5.68-1.78-4.82,1.33,2.23,8.09,10,11.16,17.73,8.8,6.83-2.09,17.37-6.19,15.76-14.9-.4-2.19-3.54-2.33-4.57-.59l-.85,1.18,4.27,1.77-.38-2.92c-.29-2.2-3.39-3.72-4.66-1.26a33.92,33.92,0,0,0-1.77,4.06l4.91.67a22.28,22.28,0,0,0,0-4.76c-.22-1.93-2.7-3.58-4.27-1.77l-1.67,2,4.27,1.76c.09-2.2.12-4.38.07-6.59-.07-2.94-3.93-3.23-4.91-.66l-3,7.76,4.91.66.51-6.92c.21-2.89-4.13-3.29-4.92-.67-.65,2.21-1.07,6.21-2.78,7.89l4.26,1.76a29.4,29.4,0,0,1,.18-5.93h-5a24.78,24.78,0,0,1-1.49,5.73l4.91.67a11.75,11.75,0,0,1,.89-5.07l-4.82-1.33a16.66,16.66,0,0,1-3.13,7.58l3.42-.9-.83-.39,1.24,2.16a9.44,9.44,0,0,1,1.29-6.25l-4.66-1.27a5.64,5.64,0,0,1-1.52,5.13l2.43-.65-.69-.29,1.83,2.42a12.92,12.92,0,0,1,.73-5.48l-4.91-.66-.42,2.72,4.66,1.27a17.08,17.08,0,0,1,2.24-8.13l-4.66-1.26a9.44,9.44,0,0,1-1.66,5.54h4.32c-3.21-6.17-4.56-12.91-5-19.8-.27-4-.39-7.3,4.89-7.78,2.54-.24,8.74,0,9.63,2.85l4.18-2.43c-5-5.81-9.89-7.62-17.41-5.51-5.61,1.57-13,5.44-15,11.26-.73,2.1,1.87,3.89,3.67,2.82l-1-.88c-.58,2.63,3.28,4.61,4.57,1.93a9.76,9.76,0,0,1,2-3.17c1.17-1.31,1.37-1.18.58.39l2.16-1.24-.67.09,2.5,2.5q-.42-3.48,1.39-2l2.43-.64a4.73,4.73,0,0,1,1.7-2.9c.64-1.29,1.15-1.27,1.51,0l.68.52q1.07-2.17.28.83h2.52c-.48-.85.1-1.22,1.75-1.11h2.52l-.83.63,2.16-1.24-.3,2,3-.39a7.15,7.15,0,0,0-2.09,5l4.57.6a8.23,8.23,0,0,1-.1-4.43l-4.82-1.33a23,23,0,0,1-2.42,7.12l4.57.6a37,37,0,0,1-.5-5.14c-.12-2.23-3.6-3.73-4.66-1.27s-2,4.86-2.79,7.38l4.91.66.33-7.32c.11-2.36-3.63-3.55-4.66-1.26l-3.61,8.1,4.66,1.26.52-6.51c.24-2.88-4.13-3.29-4.91-.67a61.28,61.28,0,0,1-2.64,7.31l4.57,1.92c.44-3,1-6,1.59-9,.55-2.59-3.34-4.65-4.57-1.92s-2.37,7.13-4.5,9.4l4.18,2.43a66.28,66.28,0,0,1,2.26-8.08l-4.82-1.33c-.55,3.18-1.24,6.3-2.08,9.41l4.82,1.33,1.7-9.28a2.5,2.5,0,0,0-4.82-1.33c-1.14,3.19-2,7-4,9.74l4.66,1.26a62.5,62.5,0,0,0-.37-7.86,2.51,2.51,0,0,0-4.91-.66c-.6,1.61-1.75,7.15-3.32,8.1l3.67,1.49a8.88,8.88,0,0,1-.16-6.06l-4.91-.66a10.43,10.43,0,0,1-1.18,6.51h4.32A10.6,10.6,0,0,1,109,173h-5c0,.63.28,4.4-.47,4.8H106a9.77,9.77,0,0,1-.11-3.77l-4.91-.67a9.7,9.7,0,0,1-.39,3.31q-.8,2.63,1.6-1.81l-4.57.6a4.49,4.49,0,0,1-.05,4.58l4.57-.6c-1.42-2.07-3.74-6.28-1.77-8.71l-4.17-1.11.74,1.72,2.43.64q.47,2.1.81-.48a4.42,4.42,0,0,1,2-3.08l-4.27-1.77a4.76,4.76,0,0,1-1,4.53l4.66,1.26,1.79-3.78-3.68-1.5-1.14,3.58,4.18,2.43c.1-.52,1.1-4.48,1.87-4.48l-2.16-1.24a2.57,2.57,0,0,1-.49,2.54l4.27,1.77a5.21,5.21,0,0,1,1.78-4.25h-2.53c-.36.93-.71,1.87-1.06,2.81l4.27,1.77a8.44,8.44,0,0,1,2.73-5.91l-4.18-1.1-.85,4.07,4.18,2.43c.07-.53,1.82-6.23-1.19-2.12l4.66,1.27.68-2.66-4.57-.6-.63,2.93,4.65,1.26a4.91,4.91,0,0,1,2.28-4.52l-4.18-1.1.08.23c-.85,3.1,4,4.43,4.82,1.33Z"/><path class="cls-5" d="M97.83,191.56a9.74,9.74,0,0,1-.49-4.54,2.59,2.59,0,0,0-1.75-3.08,2.52,2.52,0,0,0-3.07,1.75,15.28,15.28,0,0,0,.49,7.2c1,3,5.83,1.74,4.82-1.33Z"/><path class="cls-5" d="M133.3,172.14a2.87,2.87,0,0,1,.35.7l-.09-.24c.05.12.09.24.14.37.15.43.27.86.38,1.31a2.51,2.51,0,0,0,3.07,1.75A2.56,2.56,0,0,0,138.9,173a13.34,13.34,0,0,0-1.28-3.33,2.53,2.53,0,0,0-3.42-.9,2.56,2.56,0,0,0-.9,3.42Z"/><path class="cls-5" d="M311.46,148.14l5,3.28c2.39,1.56,5.06-2,3-3.93a21.41,21.41,0,0,0-4.91-3.6l-1.26,4.66c6.3.78,13.82,7.16,14.27,13.76.44,6.35-4,12-7.76,16.68-1.76,2.15-4.09,5.18-7,5.61-4.62.68-6-3.67-8.06-6.51-2.75-3.79-8.08-5.65-9.62-10.23-1.75-5.15-4.1-12.78-.16-17.25,4.19-4.76,11.11-5.37,17.08-5.4,6.27,0,11.89,1.95,15,7.74,3.6,6.7,1.09,13.66-2.19,19.83-1.51,2.84,2.81,5.37,4.32,2.53,3.29-6.18,5.76-12.61,4.12-19.71a19.83,19.83,0,0,0-10.22-13.28c-10.07-5-29.1-2.7-34.23,8.56-2.59,5.71-.16,12.62,1.45,18.31,1.74,6.09,8.31,8.75,11.69,13.8s7.48,8.27,13.69,5.92c5.63-2.12,10-8.67,13-13.58,3.82-6.16,5.56-13.86,1.64-20.42a23.86,23.86,0,0,0-17-11.36c-2.52-.32-3.33,3.55-1.26,4.65A16.93,16.93,0,0,1,316,151l3-3.93-5-3.28c-2.7-1.77-5.21,2.56-2.52,4.32Z"/><path class="cls-5" d="M292.32,150.82l.68,11.94c.18,3.19,5,3.25,5,0l0-8.65c0-2.72-4.52-3.53-4.91-.66a56,56,0,0,0-.23,14.28c.37,3.14,4.85,3.29,5,0l.61-13h-5l1.88,15.56c.37,3.13,4.81,3.28,5,0,.34-6.18.41-12.34.2-18.52h-5l1.65,21.11a2.5,2.5,0,0,0,5,0l.8-17.57h-5a169.51,169.51,0,0,0,2.47,19.58c.55,3,4.67,1.95,4.91-.67a161.25,161.25,0,0,0,.67-16.88h-5l2.11,23.09a2.5,2.5,0,0,0,5,0c.5-4.84.76-9.67.79-14.54h-5c.39,6.07,1,12.1,1.74,18.13a2.5,2.5,0,0,0,5,0,103.17,103.17,0,0,0,.61-14.17h-5c.32,4.24.81,8.45,1.43,12.66.42,2.83,4.92,2.08,4.91-.67l0-8.25h-5a77,77,0,0,0,1.78,13.1c.63,2.78,4.92,2.13,4.91-.66V171.46l-4.91.67L311.71,185c.52,2.94,4.71,2,4.91-.66a157.4,157.4,0,0,0,.36-16.25h-5a101.47,101.47,0,0,0,2.23,15.1c.62,2.77,4.93,2.13,4.91-.67L319,164l-4.91.67a109.81,109.81,0,0,1,2.8,15.49c.32,3.13,5,3.29,5,0l.15-17.09-4.91.66,2.65,13.22c.57,2.84,4.83,2.07,4.91-.66l.45-16.44-4.91.66,2.39,11.22c.61,2.85,4.79,2,4.91-.67l.6-12.94-4.91.67,1.57,9.54c.5,3,4.62,1.88,4.91-.66a28.25,28.25,0,0,0-2.94-16.28c-.89-1.81-4.26-1.53-4.57.6l-1.72,12,4.91.66A77.33,77.33,0,0,0,324,151.54c-.46-2.46-4.25-2.3-4.82,0a102,102,0,0,0-2.07,11.22h5a97.34,97.34,0,0,0-.94-13.21c-.33-2.47-4.33-2.29-4.82,0-.95,4.47-1.74,8.94-2.36,13.46l4.91.67-.69-11.79c-.16-2.67-4.32-3.58-4.91-.67l-2.76,13.56,4.91.67.12-16.82c0-2.78-4.24-3.44-4.91-.66q-1.87,7.72-3.07,15.57l4.91.66.39-14.72c.07-2.77-4.35-3.47-4.91-.67a80.4,80.4,0,0,0-1.55,19c.12,3.29,4.62,3.12,5,0a78.69,78.69,0,0,0,.5-12.84c-.13-3.2-4.93-3.23-5,0a48.88,48.88,0,0,0,1.43,12.92c.57,2.34,4.3,2.43,4.82,0a25.6,25.6,0,0,0-3.3-19.49,2.54,2.54,0,0,0-4.32,0c-3.43,4.61-3.7,9.93-1.44,15.1.72,1.67,3.57,1.6,4.32,0A16.29,16.29,0,0,0,308,148c-1-1.78-3.26-1.43-4.32,0a9.63,9.63,0,0,0,0,11.62c.83,1.15,2.83,1.88,3.92.5,2.46-3.09,3.88-7.62,1.45-11.25s-7-2.73-9.6.15c-2.38,2.7-3.29,7.67-.78,10.6,3.28,3.85,7.65.44,9.47-2.93s2.27-8.68-1.91-10.68c-3.53-1.69-8.25,1-9.83,4.37-1.4,3,.07,6.9,3.72,6.88,4.7,0,7.72-6.4,8.53-10.18a2.54,2.54,0,0,0-1.75-3.08c-4.58-.83-13.09,2.08-10.88,8.32,2.06,5.83,10.16,2.07,12.93-1.1,3.51-4,.42-8.58-4.75-7.72a6.19,6.19,0,0,0-2.45,11.27c5,3.55,10.88-1.86,11.15-7.09.28-5.43-5.45-7.31-8.8-3.27-4,4.8-2.47,12.92,3.38,15.41,5.07,2.15,11-1,11.27-6.73s-7.42-9.85-10.5-3.73c-3.71,7.35,6.49,11.23,11.95,10.05,3.14-.68,1.81-5.51-1.33-4.82-2.39.52-3.42-1.06-5.22-1.07q-1.78,3.21-4.15,1.44-2.82-.63-2.64-4.07c0-2.86,3.51-4.46-2.95-1.81-3.47,1.41-1-.74,1.66-.25l-1.74-3.08a12,12,0,0,1-1.3,3.72l-1.51,1.9c.15.89.51.9,1.09,0,1-1.18,1.39-.7,1.07,1.44.49,2.33.45,2.71-.13,1.16-.75-1.07-.45-1.29.92-.64q3.14-.06.1,3.23l3.93.5a5,5,0,0,1,0-6.57h-4.32a11.05,11.05,0,0,1,.45,10.43h4.32c-1.57-3.58-.81-7,1.44-10.06H305.6a20.49,20.49,0,0,1,2.8,15.64h4.82A43.88,43.88,0,0,1,312,154.93h-5a78.69,78.69,0,0,1-.5,12.84h5a74.49,74.49,0,0,1,1.37-17.63l-4.91-.66-.39,14.72c-.08,2.75,4.47,3.5,4.91.67q1.2-7.86,3.07-15.57l-4.91-.67-.12,16.82c0,2.75,4.34,3.48,4.91.66l2.76-13.56-4.91-.66.69,11.79c.16,2.62,4.51,3.61,4.91.66.63-4.52,1.41-9,2.36-13.46h-4.82a87.34,87.34,0,0,1,.76,11.88c0,3.32,4.6,3.09,5,0a92.22,92.22,0,0,1,1.89-9.89h-4.82a69.9,69.9,0,0,1,1.17,11.72c.05,2.7,4.5,3.56,4.92.67l1.71-12-4.57.6a23.58,23.58,0,0,1,2.26,13.75l4.92-.67-1.58-9.54c-.48-2.89-4.79-2-4.91.66l-.6,12.94,4.91-.66-2.39-11.21c-.6-2.83-4.83-2.08-4.91.66l-.45,16.44,4.91-.67L322,162.38c-.56-2.82-4.89-2.09-4.91.67l-.15,17.09h5a118.23,118.23,0,0,0-3-16.82c-.69-2.74-4.92-2.16-4.91.66l.11,18.51,4.91-.66a92.79,92.79,0,0,1-2-13.77c-.23-3.18-5.1-3.25-5,0a157.34,157.34,0,0,1-.36,16.25l4.91-.67-2.29-12.84c-.5-2.82-4.91-2.1-4.91.66V186l4.92-.67a68.58,68.58,0,0,1-1.61-11.77c-.16-3.19-5-3.24-5,0l0,8.25,4.91-.66q-.82-5.64-1.25-11.33c-.24-3.16-5.09-3.25-5,0a103.17,103.17,0,0,1-.61,14.17h5c-.77-6-1.35-12.06-1.74-18.13-.2-3.18-5-3.25-5,0,0,4.87-.29,9.7-.79,14.54h5l-2.11-23.09c-.28-3.15-5-3.28-5,0a161.25,161.25,0,0,1-.67,16.88l4.91-.66A157.7,157.7,0,0,1,303,155.28a2.5,2.5,0,0,0-5,0l-.8,17.57h5l-1.65-21.11c-.25-3.16-5.12-3.25-5,0,.21,6.18.14,12.34-.2,18.52h5l-1.88-15.56c-.37-3.13-4.84-3.3-5,0l-.61,13h5a51.49,51.49,0,0,1,.05-12.95l-4.91-.67,0,8.65h5l-.68-11.94c-.18-3.2-5.18-3.22-5,0Z"/><path class="cls-5" d="M306.53,187.28l1.15,1.83,2.95-2.28a7.61,7.61,0,0,0-1.4-1.32c-1.26-1-3.94-.1-3.14,1.82l.62,1.49,3.14-1.82-1.28-1.3a1.89,1.89,0,0,0-3.14,1.83,10.06,10.06,0,0,0,1,2.31l3.24-1.89a40.3,40.3,0,0,0-9.23-11.07c-1.83-1.53-4.38.9-2.66,2.65,4.21,4.26,7.21,11.86,13.9,12.74,6.85.89,11.67-4.7,15.14-9.78,1.37-2-1.87-3.86-3.24-1.9a38,38,0,0,1-6,6.39,1.89,1.89,0,0,0,1.82,3.13c5-1.71,7.93-6.16,10.3-10.7,1.31-2.49,1.66-5,2.46-7.71.89-2.94,2-5.66,2.67-8.69a1.88,1.88,0,0,0-3.62-1c-1.09,3.51-2.53,7.11-3.19,10.73a1.9,1.9,0,0,0,1.81,2.37c4.8-.05,4-11.91,3.88-14.73-.13-2.4-3.88-2.42-3.75,0a37.57,37.57,0,0,1,0,5.41c-.08.83-1.52,5.59-.13,5.57l1.81,2.38c.66-3.63,2.1-7.22,3.19-10.74l-3.62-1c-.85,3.95-2.24,7.78-3.34,11.66-1.34,4.7-4.57,11.14-9.46,12.81l1.82,3.14a41.8,41.8,0,0,0,6.55-7.14l-3.24-1.9c-3.35,4.91-9.41,11.49-15.41,5.78-2.94-2.79-4.87-6.59-7.73-9.49l-2.66,2.65a37.58,37.58,0,0,1,8.65,10.31c1.2,2.1,4.42.22,3.24-1.89l-.61-1.42-3.13,1.82,1.28,1.3c1.22,1.24,3.88,0,3.13-1.82l-.62-1.5-3.14,1.83a7.67,7.67,0,0,1,1.41,1.32,1.88,1.88,0,0,0,2.94-2.27l-1.16-1.83c-1.28-2-4.53-.15-3.23,1.9Z"/><path class="cls-5" d="M293.65,171.16c.23-5.87-4.44-11.84-2.82-17.64,2.16-7.72,15.56-11.51,17.95-1.69.57,2.34,4.19,1.35,3.62-1-2.28-9.35-12.56-10.79-19.6-5.62-3,2.18-5.39,4.66-5.95,8.44-.9,6.09,3.29,11.54,3,17.51-.1,2.42,3.65,2.41,3.75,0Z"/><path d="M199.69,197.28c-1,.38-2,.69-3.1,1l1.22,2.09c1.25-1.44,3.08-1.11,4.71-1.55s3.31-1.26,5.17-1.39c1.59-.11,1.62-2.56,0-2.5s-3.14.88-4.74,1.38a18.64,18.64,0,0,1-6.4.63v2.5c5.2.06,11.67.39,15.19-4.19,3.25-4.24-.19-8.74-3-12.28-1-1.25-2.77.52-1.77,1.77a32.77,32.77,0,0,1,2.67,4.2c1.55,2.64.59,5.14-2,6.55-3.32,1.81-7.43,1.49-11.08,1.45a1.25,1.25,0,0,0,0,2.5,19.52,19.52,0,0,0,5.4-.2c1.81-.46,3.9-1.75,5.74-1.81v-2.5c-2.35.16-4.34,1.25-6.63,1.63-2,.33-3.63.45-5,2a1.26,1.26,0,0,0,1.21,2.09c1.06-.28,2.07-.59,3.1-1,1.5-.55.85-3-.66-2.41Z"/><path d="M206.94,182.27c-1.2,1.11-3,3.13-1,4.56,1.36,1,3.59-.34,3.77-1.94a2.25,2.25,0,0,0-3.42-2c-1.59,1.11-1.1,3.8.36,4.78,4.51,3,4.23-6.53-.09-3.7s2.28,8,3.65,2.76a1.25,1.25,0,0,0-.57-1.41c-3.69-2-4.16,5.53.14,5a1.86,1.86,0,0,0,.94-3.33c-1.64-1.16-3,.69-3.11,2.17s1.14,3.58,2.92,3.23,1.92-2.81.53-3.65c-4.1-2.5-3.86,7,.08,4.53a1.28,1.28,0,0,0,.57-1.41c-.7-2.89-4.14-1.09-4.44,1.13-.34,2.6,3,4,3.78,1.24a1.3,1.3,0,0,0-.88-1.54c-3.75-1.57-5.2,4.25-1.25,4.36a1.26,1.26,0,0,0,1.25-1.25c.13-3.34-4.37-2.32-5,.32s2.86,4.63,4.36,2a1.3,1.3,0,0,0-.19-1.52c-2.66-3.16-7.6.64-3.83,3.19l1.26-2.16a4.23,4.23,0,0,0-2.59-.78,1.25,1.25,0,0,0,0,2.5l1.33.44c1.36.87,2.58-1.27,1.26-2.16l.8.74-.2-1.51a.84.84,0,0,0,.33-1.07l1.25-1.25.59.55-.88-1.53.67-1,.58-1.41c1.61-1-1.46-3.58-1.5-3.61l-.58-1.41-.18-.65-.33-1.21c-.37,1.29.85.35,1.44-.19,1.18-1.09-.59-2.86-1.77-1.77Z"/><path d="M235.52,181.41a4.08,4.08,0,0,0-1.53,4.06,1.25,1.25,0,0,0,1.54.87c1.71-.51,2.8-2.62,1.25-4a2.3,2.3,0,0,0-3.84,1.67,2.65,2.65,0,0,0,4,2.08c2-1.25.88-3.5-.8-4.35a1.28,1.28,0,0,0-1.52.19c-1.28,1.47-1.39,4.93.78,5.79s3.87-2.1,3.43-3.93c-.48-2-2.81-3.51-4.64-2.12-1.61,1.22-2,4.37.3,5s3.87-2.1,3.1-4.08c-.93-2.4-3.78-2.06-4.72.11s-.29,5.95,1.92,7.23,4-1.17,3.55-3.27c-.58-2.53-3.77-2.24-4.78-.18a4.54,4.54,0,0,0,2.28,6.07,1.28,1.28,0,0,0,1.41-.57c1.07-1.46.48-4.31-1.78-4-2.11.28-2.62,3-2,4.69,2.38,6,8.2-2.68,3.23-3.49-4.23-.69-3.74,7.68,1.5,6.51,1.5-.34,3.23-2,2.09-3.6a2.16,2.16,0,0,0-3.61.53c-1,2.27,1.39,3.64,3.32,3.64a7.6,7.6,0,0,0,3.71-1,11.16,11.16,0,0,1,5.58-1.21v-2.5c-2.93.1-9.69,3.59-10.33-.91-.19-1.38-2.61-1.07-2.45.33.51,4.66,6.83,4.54,10.19,3.48l-1.21-2.09a8.16,8.16,0,0,1-4.62,1.76c-.4,0-2.81.14-2.85-.32-.14-1.59-2.65-1.6-2.5,0,.48,5.24,9.51,2.29,11.73.33a1.26,1.26,0,0,0-1.21-2.09c-1.27.4-6.75,1.46-7-1.07l-2.46.33c1,7.27,8.25,2.9,12.74,2.75a1.25,1.25,0,0,0,0-2.5,17.7,17.7,0,0,0-5.3.52c-.95.31-1.51,1.15-2.46,1.48-1.94.68-7.19-1.84-6.48-2.8l1.41-.58c-1.18-.47-.49-2-.66-2.58s-.65-1.13-.79-1.81c-.54-1.5-.35-2,.56-1.49q.88.62.78-.6l-1.51.19c.75.39.18,0,0,0l1.54.87a2.16,2.16,0,0,1,.39-1.23c1.33-.88.08-3-1.27-2.16Z"/><path d="M226.45,213.82v-2.93a.63.63,0,0,0-1.25,0c-.06,2.18.26,4.11.4,6.27a.63.63,0,0,0,1.17.31c1.73-2.63-.42-8.56-.75-11.2-.73-5.78-.84-12.25-2.62-17.87-.2-.63-1.32-.56-1.23.17.62,4.66,2.36,9.13,2.79,13.86.46,5.2.29,10.45.91,15.62.09.78,1.28.82,1.25,0v-.23a.63.63,0,0,0-1.25,0v.23h1.25c-.62-5.17-.46-10.42-.91-15.62-.42-4.73-2.17-9.21-2.79-13.86l-1.23.16c1.47,4.63,1.29,9.7,2.21,14.44.45,2.33.5,4.7,1,7,.29,1.39,1.25,5.22.32,6.64l1.16.32c-.14-2.11-.46-4.15-.4-6.27H225.2v2.93a.63.63,0,0,0,1.25,0Z"/><path d="M183.47,197.58c-7.55,5.15-15.11,10.32-21.68,16.7-7.34,7.14-13.35,15.71-19.66,23.74-6.11,7.77-9.47,15.51-12.28,25-2.86,9.61-5.52,19.55-6,29.61-.88,18.12,8.24,32.7,24.85,40,7,3.07,14.26,5,21.35,1.11,7.85-4.28,13.73-12.28,18.65-19.53,12.67-18.7,21-41.63,41.29-53.77a1.25,1.25,0,0,0-1.26-2.16c-13.79,8.27-22.64,21.77-30.55,35.38-4.35,7.48-8.54,15.09-13.61,22.11-5.38,7.44-13.12,17.64-23.21,17.78-8.44.11-18.39-5.79-24.34-11.39-7.12-6.69-10.48-15.65-10.72-25.31-.23-9.4,2-18.7,4.44-27.72s5-18.46,10.75-26.15c6.21-8.29,12.6-16.88,19.71-24.43,6.92-7.35,15.25-13.07,23.55-18.73,1.32-.91.07-3.07-1.26-2.16Z"/><path d="M225.59,219.16a222.39,222.39,0,0,1,3.14,40.66,1.25,1.25,0,0,0,2.5,0A227,227,0,0,0,228,218.5c-.27-1.59-2.68-.92-2.41.66Z"/><path d="M258.88,196.45a110.61,110.61,0,0,1,36.15,25c10.09,10.45,21.43,25.06,23.37,39.89.47,3.58.56,7.18,1.29,10.73,1.08,5.24,1.78,9.43.64,14.75-1.85,8.61-4.56,17.54-12.45,22.44-6.72,4.17-15.6,5.26-23.24,3.45-8.2-1.95-13.34-8.5-18.28-14.79a202.42,202.42,0,0,0-18.1-20.07c-6.47-6.28-13-12.48-16.93-20.73-.69-1.46-2.85-.19-2.16,1.26,3.68,7.69,9.52,13.68,15.58,19.55a217.38,217.38,0,0,1,19.84,21.76c4.72,6,9.57,12.13,17,14.74a33.84,33.84,0,0,0,22.7-.67,25.66,25.66,0,0,0,14.92-14.42c2.88-6.84,5.4-15.48,4-22.93-1.64-8.84-1.92-18.06-5.59-26.38a101.25,101.25,0,0,0-13-21.32,113.54,113.54,0,0,0-44.52-34.46c-1.46-.62-2.73,1.53-1.26,2.16Z"/><path d="M170.62,333.71c7.07,6.67,16.87,7.12,26.09,7.2a232,232,0,0,0,33.11-2c21.6-2.94,42.9-9.47,61-21.89,1.32-.9.07-3.07-1.26-2.16-16.74,11.48-36.21,17.86-56.14,21a217,217,0,0,1-31,2.52c-10,.14-22.2,1-30.05-6.44-1.17-1.11-2.95.66-1.77,1.76Z"/><path class="cls-6" d="M163.45,116.61c7.28,17.26-7.28,38-.27,55.33l0,0L160,175.09c-17.75,17.23-35.95,35.09-45.69,57.82-17.7-1.8-36.66-15.39-42.59-32.15A43.6,43.6,0,0,1,69,184c.3-5.68,2-11.2,3.75-16.6,2.48-7.53,5.3-15.15,10.43-21.19,14.06-16.54,40.28-16.12,57.23-29.68,4.69-3.74,9.81-8.86,15.62-7.37C159.58,110.07,162,113.27,163.45,116.61Zm-24,70.63c3.8-7.87,1.79-17.5-2.62-25.05-3.31-5.65-8.93-11-15.44-10.31a9.78,9.78,0,0,1-3.14.14c-9.53,1.43-18.9,6.44-23.88,14.68S88.91,186,94,194.17s15.75,12.75,25,9.93a33.86,33.86,0,0,0,10-5.49C133.09,195.51,137.15,191.94,139.43,187.24Z"/><path class="cls-7" d="M118.23,152c-9.53,1.43-18.9,6.44-23.88,14.68S88.91,186,94,194.17s15.75,12.75,25,9.93a33.86,33.86,0,0,0,10-5.49c4.2-3.1,8.26-6.67,10.54-11.37,3.8-7.87,1.79-17.5-2.62-25.05-3.31-5.65-8.93-11-15.44-10.31A9.78,9.78,0,0,1,118.23,152Z"/><path class="cls-8" d="M197.6,129.48c-3.34,12.12-12.73,21.48-21.75,30.23L163.21,172,160,175.09c-17.75,17.23-35.95,35.09-45.69,57.82a94.64,94.64,0,0,0-4.6,60.5c1.92,7.4,4.81,14.7,9.68,20.6s11.89,10.3,19.52,10.78"/><path class="cls-7" d="M114.31,232.91c-17.7-1.8-36.66-15.39-42.59-32.15A43.6,43.6,0,0,1,69,184c.3-5.68,2-11.2,3.75-16.6,2.48-7.53,5.3-15.15,10.43-21.19,14.06-16.54,40.28-16.12,57.23-29.68,4.69-3.74,9.81-8.86,15.62-7.37,3.51.9,6,4.1,7.38,7.44,7.28,17.26-7.28,38-.27,55.33"/><path class="cls-6" d="M381.73,109.17a177.4,177.4,0,0,1-.92,19.83c-.26,2.54-1.29,5.77-3.84,5.82a4.25,4.25,0,0,1-2.78-1.25c-5.3-4.7-4-13.42-7.52-19.55-4.2-7.25-13.76-8.93-20.8-13.48-7.7-5-12.3-13.43-18.31-20.37-12.77-14.75-32-22.72-44.74-37.52a8.76,8.76,0,0,1-2.33-4.14c-.34-2.13.8-4.18,1.9-6L293.85,13l.12-.12,2.35,2.27a163,163,0,0,0,34.19,25.07c4.5,2.47,9.18,4.77,13,8.2,13.5,12.06,13.71,35.27,28.86,45.18,2.3,1.5,4.9,2.67,6.65,4.78C381.43,101.33,381.69,105.4,381.73,109.17Z"/><path class="cls-9" d="M151.46,27.59C163,12.64,186.31,10.23,205,12.7c8.87,1.17,18.14,3.37,26.53.27,4.34-1.6,8.08-4.52,12.33-6.36A54.7,54.7,0,0,1,254,3.75c9.12-1.94,18.94-3.83,27.51-.16,4.81,2.06,8.7,5.68,12.48,9.33l2.35,2.27a163,163,0,0,0,34.19,25.07c4.5,2.47,9.18,4.77,13,8.2,13.5,12.06,13.71,35.27,28.86,45.18,2.3,1.5,4.9,2.67,6.65,4.78,2.4,2.91,2.66,7,2.7,10.75a177.4,177.4,0,0,1-.92,19.83c-.26,2.54-1.29,5.77-3.84,5.82a4.25,4.25,0,0,1-2.78-1.25c-5.3-4.7-4-13.42-7.52-19.55-4.2-7.25-13.76-8.93-20.8-13.48-7.7-5-12.3-13.43-18.31-20.37-12.77-14.75-32-22.72-44.74-37.52a8.76,8.76,0,0,1-2.33-4.14c-.34-2.13.8-4.18,1.9-6L293.85,13"/><path class="cls-6" d="M101.41,54.67c.55,1.37,0,2.92-.59,4.25-3,6.63-8.21,12-13.06,17.46a269,269,0,0,0-48.42,78.1l-7-6-10.83,27c-.81,2-1.9,4.31-4,4.85-3.39.87-5.76-3.23-6.84-6.55L2.46,148.66c-1.07-3.29-1.82-7.61,1-9.56a17.05,17.05,0,0,1,3.73-1.4c3.09-1.18,5.06-4.2,6.5-7.17,4.63-9.58,5.93-20.56,11-29.92,3.67-6.81,9.14-12.44,14.21-18.29C48.82,70.86,57.47,58.18,67.1,46.5a108.55,108.55,0,0,1,30.36,5.39C99,52.41,100.78,53.13,101.41,54.67Z"/><path class="cls-9" d="M67.1,46.5l-1,0"/><path class="cls-9" d="M67.1,46.5C57.47,58.18,48.82,70.86,38.9,82.32c-5.07,5.85-10.54,11.48-14.21,18.29-5.05,9.36-6.35,20.34-11,29.92-1.44,3-3.41,6-6.5,7.17a17.05,17.05,0,0,0-3.73,1.4c-2.84,2-2.09,6.27-1,9.56l8.19,25.07c1.08,3.32,3.45,7.42,6.84,6.55,2.12-.54,3.21-2.82,4-4.85l10.83-27,7,6a269,269,0,0,1,48.42-78.1c4.85-5.45,10-10.83,13.06-17.46.61-1.33,1.14-2.88.59-4.25-.63-1.54-2.37-2.26-4-2.78A108.55,108.55,0,0,0,67.1,46.5Z"/><path class="cls-9" d="M152.28,26.57c-10.4-2.67-21.62-4.33-32-7-5.35-1.37-10.87-2.76-16.34-2-6.29.88-11.84,4.51-16.78,8.51a143.35,143.35,0,0,0-20,20.43"/><path class="cls-6" d="M39,152.51c-.41,16.12-5,31.65-6.52,47.65a76.32,76.32,0,0,0,7.73,41.49c6.57,13.34,16,25.1,25.37,36.53C76,290.94,86.67,303.7,97.94,315.79c12,12.87,25.2,24.42,40.29,33.52a1.25,1.25,0,0,0,1.26-2.16c-17.09-10.3-31.56-23.81-44.81-38.64-13.43-15-26.82-30.43-38.84-46.61C44.52,246.64,34.91,229.49,34.54,210s6.44-38.13,6.93-57.51a1.25,1.25,0,0,0-2.5,0Z"/><path class="cls-6" d="M139.48,349.55a264,264,0,0,0,93.22-.71q11.43-2.16,22.63-5.34c8.26-2.35,16.32-5,25-5.18,7-.17,13.85.36,20.76-.68a67.3,67.3,0,0,0,17.61-5.19A69.32,69.32,0,0,0,349.73,305a1.25,1.25,0,0,0-2.16-1.26,67,67,0,0,1-39.06,29.78c-8.48,2.39-16.76,2.3-25.46,2.29-9.29,0-17.73,2.21-26.59,4.78a260.8,260.8,0,0,1-116.31,6.57c-1.58-.27-2.25,2.14-.67,2.41Z"/><path class="cls-6" d="M347.48,105c9.84,14.2,19.51,29,24.47,45.66,5.1,17.18,4.85,35.36,2.59,53s-6.15,35.1-10.13,52.38-9.08,34.51-17.71,50.2c-.77,1.41,1.38,2.67,2.16,1.26,8.73-15.87,13.9-33.21,18-50.79s7.94-35.21,10.22-53,2.49-36.26-2.67-53.64c-5-16.93-14.76-31.88-24.73-46.26-.91-1.31-3.08-.07-2.16,1.26Z"/><path class="cls-6" d="M31.19,216.58a83.07,83.07,0,0,0-8.53,49c1.38,10,6.06,19.54,6.49,29.65.36,8.55-2.77,16.69-1.49,25.29,2.07,14,11.86,25.16,21.15,35.11,11.5,12.32,22.38,24,29.45,39.54C90.83,422.92,98.5,463.1,133,471.59c18.42,4.52,37.83-1.78,56,4.19,8.28,2.72,15.82,7.34,24.22,9.73s16.14,1.4,24.14-1.63c21.46-8.12,42.4-18,63.51-27l66.81-28.46c1.47-.63.2-2.79-1.26-2.16L256,473.36c-9.23,3.93-18.76,9.25-28.76,10.76-9.51,1.43-18.16-2.49-26.63-6.3-6.92-3.11-13.77-5.79-21.37-6.72-8.86-1.08-17.79-.36-26.68-.26-9.48.1-19-.6-27.65-4.83-7.27-3.56-13.31-9.23-18.23-15.58-10.56-13.62-15.72-30.16-21.92-46-5.6-14.3-12.64-27.06-23-38.5C52.35,355.42,41.2,345.69,34.49,333c-4.52-8.54-5.28-16.95-3.89-26.41.7-4.72,1.37-9.27.8-14.06a88.77,88.77,0,0,0-3.25-13.81c-5.9-20.53-4.59-41.73,5.2-60.89.73-1.43-1.43-2.7-2.16-1.26Z"/><path class="cls-6" d="M102.4,451.49c18.17,34.5,29.65,72.79,32.49,111.73.68,9.31.75,18.8-1.24,28-1.89,8.74-5.91,16.39-11,23.65-8.46,12-18.86,23.19-20.88,38.34-.15,1.19,1.42,1.5,2.14.89a25.16,25.16,0,0,0,8.64-15c.29-1.57-2.12-2.25-2.41-.67a23.18,23.18,0,0,1-8,13.93l2.13.88C106,639.9,115,629.55,122.63,619.12s13.07-21.29,14.59-34.34c1.65-14.31-.15-29-2.33-43.17A289.69,289.69,0,0,0,124.3,497a295,295,0,0,0-19.74-46.72c-.75-1.42-2.91-.16-2.16,1.26Z"/><path class="cls-6" d="M109.81,645.64c-.54,4.09-3.39,12-.4,15.53,2.64,3.12,9.35,4.75,13.11,6.18a56.52,56.52,0,0,0,17.92,4.1c5.73.19,19.53-5.33,21,2.74l2.41-.66c-1.73-7.22,12.79-7.16,16.13-11.24,3.13-3.81,2.43-9.95,2.53-14.5.33-15.59.06-31.26,2.5-46.71,2.2-14,5.15-26.94,3.39-41.16-1.8-14.57-5.91-28.9-4-43.69.21-1.59-2.3-1.57-2.5,0-2,14.81,2.16,29.11,4,43.69,1.91,15.36-1.91,29.5-3.89,44.59-2,15.31-1.66,30.77-2.07,46.17-.13,4.72.21,9.5-4.73,11.92-2.63,1.29-5.68,1.31-8.34,2.53-3.73,1.71-6.44,4.85-5.43,9.06.38,1.58,2.7.9,2.41-.66-2-10.88-17.64-4.19-24.33-4.64-6.88-.45-13.46-2.7-19.79-5.32-3.48-1.44-8.5-2.45-8.91-6.88-.3-3.37,1-7.69,1.46-11.05.21-1.59-2.29-1.58-2.5,0Z"/><path class="cls-6" d="M157.44,486.43a142.48,142.48,0,0,1,19.26,20.63c4.81,6.34,8.15,14,13.29,20s12.7,4.92,20,4.66l30.39-1.12c17.76-.65,36.1-.93,51.71-10.56a60.72,60.72,0,0,0,16.78-15.32c4.88-6.51,8-14.92,15.93-18.38,1.47-.65.2-2.8-1.26-2.16-5.94,2.6-9.36,7.84-12.71,13.13-4.38,6.9-9.42,13-16.05,17.91-15.41,11.32-34,12.14-52.44,12.81l-28.43,1c-4.25.16-8.63.62-12.89.42-5.8-.28-8.9-3.21-11.75-7.95-8.33-13.82-17.91-26.19-30-36.92-1.2-1.06-3,.7-1.77,1.77Z"/><path class="cls-6" d="M183.44,539.39c5.71,9.82,12,20.44,22.42,25.87,12.11,6.31,27.67,5.4,40.91,5.71,25.66.6,53.9.89,75.9-14.32,1.32-.91.07-3.08-1.26-2.16-20.61,14.25-46.68,14.46-70.79,14.06-12.83-.22-27.59.68-39.79-3.83s-19-15.92-25.23-26.59a1.25,1.25,0,0,0-2.16,1.26Z"/><path class="cls-6" d="M319.2,494.74c5.43,15,10.76,31.08,4.37,46.65-2.67,6.52-5.39,12.43-6.08,19.55-.71,7.35-.19,14.8-.34,22.18a290.51,290.51,0,0,1-16.75,90.93c-.54,1.52,1.88,2.17,2.41.66a292.28,292.28,0,0,0,16.84-91.59c.15-7.92-.49-16,.56-23.82s5.45-14.57,7.55-22.23c4-14.45-1.26-29.47-6.15-43-.55-1.51-3-.86-2.41.66Z"/><path class="cls-6" d="M369.81,144.89c8.17,7.68,16.46,15.56,22.1,25.37,5.76,10,8.77,21.74,12.1,32.73a657.25,657.25,0,0,1,16.77,68.16,597.2,597.2,0,0,1,9.52,71.23c1.61,24-3.62,48-7.15,71.59-3.68,24.6-8.11,49.51-20.35,71.5-.78,1.41,1.38,2.67,2.16,1.26,10.9-19.57,15.76-41.48,19.27-63.42,2-12.35,3.7-24.74,5.52-37.12,1.67-11.36,3.6-22.69,3.46-34.21-.28-24.05-4.17-48.51-8.31-72.16a660.92,660.92,0,0,0-16.85-72c-3.66-12.47-7-25.78-13.15-37.29-5.74-10.67-14.59-19.16-23.33-27.36-1.17-1.1-2.94.66-1.76,1.76Z"/><path class="cls-6" d="M406.16,487.35h.37a1.3,1.3,0,0,0,1.21-.92,1.71,1.71,0,0,0-.28-1.87,1.31,1.31,0,0,0-1.41-.58c-1.7.55-2.09,1.56-3,3.13-1.93,3.3-3.69,6.71-5.42,10.12Q393,506.43,389,516a262.11,262.11,0,0,0-19.28,85.14c-.79,14.42-.89,29.33,2.12,43.51,3.44,16.2,14.25,29.22,18.14,45.16.38,1.56,2.79.9,2.41-.66-1.9-7.79-5.55-14.8-9.2-21.87-4.32-8.35-7.79-16.69-9.47-26-3.2-17.66-2.29-36.47-.34-54.22a260.14,260.14,0,0,1,11.32-52.19,254.84,254.84,0,0,1,10.09-26q2.54-5.62,5.36-11.13,1.6-3.13,3.3-6.24c.21-.38,3.68-6.62,2.68-6.61a1.25,1.25,0,0,0,0,2.5Z"/><path class="cls-6" d="M302.06,671.47a51,51,0,0,1-4.29,15.4c-.66,1.46,1.49,2.73,2.16,1.27a55,55,0,0,0,4.63-16.67c.18-1.59-2.32-1.58-2.5,0Z"/><path class="cls-6" d="M317.42,489.88a31.5,31.5,0,0,0,2.52,6.13c.77,1.42,2.93.16,2.16-1.26a27.57,27.57,0,0,1-2.27-5.54,1.25,1.25,0,0,0-2.41.67Z"/><path class="cls-6" d="M154.88,665.17l.11.34a1.3,1.3,0,0,0,1.54.87l.44-.06a1.2,1.2,0,0,0,.87-.88,4.23,4.23,0,0,0-.25-1.93c-.81-3.36-2.76-6.39-3.4-9.9a38.42,38.42,0,0,1,1.66-19.85c.53-1.52-1.88-2.18-2.41-.67a40.32,40.32,0,0,0-2.28,16.72c.16,2,1.75,14.58,4.7,14.16l1.54.87-.11-.33c-.53-1.51-2.94-.86-2.41.66Z"/><path class="cls-6" d="M129.64,666.15a143.44,143.44,0,0,1,3.8-35.64c.37-1.56-2-2.23-2.41-.66a145.86,145.86,0,0,0-3.89,36.3,1.25,1.25,0,0,0,2.5,0Z"/><path class="cls-6" d="M107.29,464.4l.41-.46a1.34,1.34,0,0,0,.2-1.52c-.46-1.06-.74-1.2-1.81-1.56a1.3,1.3,0,0,0-1.22.32c-1.67,1.5-1.78,3.31-2.57,5.36a29.8,29.8,0,0,1-5.49,8.73c-3.72,4.26-8.26,7.73-12.72,11.17-6.4,4.95-17.59,11.58-11.42,20.89,6,9,19.21,13.08,29.3,14.63,5.1.79,10.43,1.57,15-1.33,4.78-3,8.32-8.46,11-13.33.76-1.42-1.4-2.68-2.16-1.27-2.61,4.82-6.18,10.62-11.3,13.06s-12.31.62-17.56-.66c-7.38-1.79-31.07-10.84-21.29-21.74,5.26-5.87,12.59-9.9,18.45-15.16a46.78,46.78,0,0,0,7.27-8,29.28,29.28,0,0,0,2.78-4.9c.31-.69.58-1.38.83-2.09a27.15,27.15,0,0,0,.57-3.91c-1.07,1.2.69,3,1.77,1.77Z"/><path class="cls-6" d="M104.71,517.83a127.06,127.06,0,0,1,11.56-22.9c.87-1.36-1.29-2.61-2.15-1.26a129.19,129.19,0,0,0-11.82,23.49c-.58,1.51,1.84,2.16,2.41.67Z"/><path class="cls-6" d="M87.18,513.91a66.45,66.45,0,0,1,16.2-19.53c1.24-1-.54-2.78-1.77-1.77a68.34,68.34,0,0,0-16.59,20c-.77,1.41,1.38,2.68,2.16,1.26Z"/><path class="cls-6" d="M327.71,682.49l-1.25-18c-.11-1.6-2.61-1.61-2.5,0l1.25,18c.11,1.6,2.61,1.61,2.5,0Z"/><path class="cls-6" d="M352.79,684.49a52.16,52.16,0,0,0-3-17.36c-.54-1.5-3-.85-2.41.67a50,50,0,0,1,2.94,16.69,1.25,1.25,0,0,0,2.5,0Z"/><path class="cls-6" d="M381,683.1a26.18,26.18,0,0,0-7.75-13.32c-1.18-1.09-3,.67-1.77,1.77a23.81,23.81,0,0,1,7.11,12.21c.37,1.57,2.78.91,2.41-.66Z"/><path class="cls-6" d="M342.33,151.78c2.84,10.95,5.27,22.57,2.1,33.42a68,68,0,0,1-4.84,11.28l-9.91,19.69a39.7,39.7,0,0,1-3.22,5.64l-.31.15a144.28,144.28,0,0,0-10.28-16.77c-3.05-4.49-6.11-9-9.32-13.42l.57-.42c3.51,2.58,8.54,2.38,12.43.4s6.8-5.46,9.15-9.15c4.27-6.71,7-14.64,6.4-22.58s-5-15.79-12.17-19.33c-5.26-2.6-11.45-2.7-17.24-1.74a30.27,30.27,0,0,0-12.25,4.49A16.69,16.69,0,0,0,286.19,154c-.93,5.39,3.32,15.18,5.65,20.13a91,91,0,0,0-8.62-7.66c-1-.76-2-1.5-3-2.23l.9-1.23c.61-9.57-6.17-17.88-8.94-27.06-1.63-5.4-1.89-11.21-4.15-16.38-2.16-4.93-6-9-7.94-14a6.88,6.88,0,0,1-.55-3.75c.76-3.83,6.1-4.58,9.75-3.22,9.65,3.6,14.59,14.59,23.6,19.57,5.9,3.27,12.9,3.62,19.51,4.93C322,125,331.7,129.49,337,137.76,339.69,142,341.06,146.92,342.33,151.78Z"/><path class="cls-8" d="M235.26,129.42c8.91,8.33,14.58,8.58,23.95,16.39,3.69,3.08,6.7,6.88,10.23,10.13a121.14,121.14,0,0,0,10.79,8.3c1,.73,2,1.47,3,2.23a91,91,0,0,1,8.62,7.66,146.8,146.8,0,0,1,14.71,17.64c3.21,4.41,6.27,8.93,9.32,13.42A144.28,144.28,0,0,1,326.15,222a60.69,60.69,0,0,1,2.49,5.66c4,10.52,4.63,22,4.28,33.25-.45,14.08-3.35,27.49-14.21,36.45"/><path class="cls-9" d="M281.13,163c.61-9.57-6.17-17.88-8.94-27.06-1.63-5.4-1.89-11.21-4.15-16.38-2.16-4.93-6-9-7.94-14a6.88,6.88,0,0,1-.55-3.75c.76-3.83,6.1-4.58,9.75-3.22,9.65,3.6,14.59,14.59,23.6,19.57,5.9,3.27,12.9,3.62,19.51,4.93C322,125,331.7,129.49,337,137.76c2.71,4.24,4.08,9.16,5.35,14,2.84,10.95,5.27,22.57,2.1,33.42a68,68,0,0,1-4.84,11.28l-9.91,19.69a39.7,39.7,0,0,1-3.22,5.64"/><path class="cls-9" d="M291.84,174.13c-2.33-4.95-6.58-14.74-5.65-20.13a16.69,16.69,0,0,1,7.25-10.56A30.27,30.27,0,0,1,305.69,139c5.79-1,12-.86,17.24,1.74,7.14,3.54,11.55,11.39,12.17,19.33s-2.13,15.87-6.4,22.58c-2.35,3.69-5.26,7.17-9.15,9.15s-8.92,2.18-12.43-.4"/><path class="cls-6" d="M310.45,155c-4.06-1.79-8.2,2-9.68,5.68-1.69,4.18.31,9.29,4,11.81,8.23,5.66,18.61-5.13,13.72-13.41-2.11-3.58-7.08-5.13-10.68-2.82s-4.66,7.91-2.61,11.64,7.61,5.1,10,.76c1.92-3.54.08-9.92-4-11.27-5-1.67-7.27,5.55-5.38,9.14a3.92,3.92,0,0,0,5.33,1.81c2.39-1.27,2.5-4.2,1.58-6.39-.65-1.54-2.82-2.71-4.18-1.1a5.17,5.17,0,0,0-1.45,4.1c.33,3.17,5.34,3.2,5,0v-.56l-4.18-1.11c.08.88.51,1,1.28.46.9.05,1.27-.36,1.11-1.24-.57-.24.48,1.73.47,1.7.18.87.18,2.35-1,1.58-.64-.43-.71-1.73-.67-2.44.27-5.18,6.53-3,5.4,1.64-.85,3.51-5.13,5.57-7.77,2.56-1.14-1.31-2-3.06-1.44-4.79a5.84,5.84,0,0,1,1.54-2.25c.45-.43,1.81-.86,1.09-1.18,2.91,1.29,5.46-3,2.52-4.32Z"/><path class="cls-10" d="M315.94,153.39c-.52-.08-.72,0-.61.24a1,1,0,0,0,.85.63l-.75.58-.22-1.37,0,0v-.09c0-.18-.07-.18-.34,0a6.78,6.78,0,0,1,.4-.66c-.27.06.24.31.2.27s.2,0,.29.22,0,.4-.26.42c-.71.08-.43-1,.16-.82a.59.59,0,0,1,.33.8c0,.06-.15.17-.19.23s-.13.2-.3.19l.1.26c-.11.38,0,.44-.42.56s-.23-.26-.16-.26.12.27-.07.27-.63-.07-.59-.52c.08-1.07,1.17.42-.06.46-.71,0-1-1-.25-1.21a.53.53,0,0,1,.46.9c-.55.42-1.06-.23-.95-.75a1,1,0,0,1,1.62-.4c.4.36.51,1.58-.32,1.44-.47-.08-.4-.76,0-.89.76-.24,1,.75.68,1.22-1,1.54-2.84-1-1.71-1.34.77-.24,2,1.71.88,2.17a.69.69,0,0,1-.63-1.21c.23-.15.74,0,.8-.05-.22.15-.37,0-.46-.3-.28-.94,1-1.42,1.66-1.58,1.57-.37.91-2.78-.66-2.41-1.91.45-3.67,1.92-3.51,4a2.82,2.82,0,0,0,4,2.5,2.5,2.5,0,0,0,0-4.5,3.21,3.21,0,1,0,1.62,1.88c-.58-2-3-3.83-5-2.7a3.38,3.38,0,0,0-1,4.62,3.76,3.76,0,0,0,5.17,1.23,3.37,3.37,0,0,0,.78-4.95,3.12,3.12,0,0,0-4.86.11,3,3,0,0,0,1.29,4.49,3.14,3.14,0,0,0,4.1-2.59,3.55,3.55,0,0,0-3.45-3.94,3.35,3.35,0,0,0-3.44,3.88,3.11,3.11,0,0,0,4.06,2.47,3,3,0,1,0-3.28-4.73,3,3,0,0,0,1,4.76,3.16,3.16,0,0,0,4.48-2.11,2.81,2.81,0,0,0-3.78-3.22,3.08,3.08,0,0,0-.75,5,2.88,2.88,0,0,0,4.66-1.13,2.58,2.58,0,1,0-4,1.29,2.87,2.87,0,0,0,4.49-1.57c.47-1.88-1.1-4.39-3.24-3.53a2.36,2.36,0,0,0,.14,4.4,2.82,2.82,0,0,0,3.59-3.34,3,3,0,0,0-4.51-2,2.94,2.94,0,0,0-.25,4.83,2.87,2.87,0,0,0,4.43-1.36,2.91,2.91,0,0,0-2.67-3.76c-1.87.07-3.46,2.23-2.11,3.86,1.16,1.41,3.79,1.1,3.95-1a2.34,2.34,0,0,0-3.81-1.88,2.66,2.66,0,0,0,.92,4.4c2,.63,3.65-1.89,1.81-3.2s-3.33,1.43-1.76,2.76,3.76-.36,3.3-2.3c-.41-1.71-3-2.93-4-1-.71,1.43,1.44,2.7,2.16,1.26Z"/><path class="cls-5" d="M93.75,176.17a13.9,13.9,0,0,0-.85,5.19,2.5,2.5,0,0,0,5,0,10,10,0,0,1,.67-3.86,2.5,2.5,0,1,0-4.82-1.33Z"/><path class="cls-6" d="M113.73,168.54c-4.84.63-8.93,4-9.64,9a10.46,10.46,0,0,0,7,11c10.8,3.71,18.14-15.25,7.68-19.48-11.35-4.6-13.92,17.2-4.45,15.89,5.11-.71,5.73-8.79,3-12.09-3.47-4.23-8.26.5-8.67,4.5-.56,5.38,5.95,9.16,8.68,3.36,1-2,1.25-5.58-1-6.92s-4.42.81-5.49,2.71c-1.58,2.81,2.74,5.34,4.32,2.53.51-.32.64-.58.38-.8l-1.93-.25.39.26-1.15-1.49a2.08,2.08,0,0,0,.48,1.4q.6,1.25.33-.63l.39-.95-.26.25c0,.09.26,3.71-.39,2a5,5,0,0,1,.18-2.28c.32-1.63,1.27-3.55,3.22-2.88,2.3.78,2.19,3.87,1.59,5.74s-2,4.49-4.18,4.66a5.28,5.28,0,0,1-.48-10.52c3.14-.4,3.18-5.41,0-5Z"/><path class="cls-10" d="M115.62,171.48a1.73,1.73,0,0,1-1-1.81,1.27,1.27,0,0,1,.19-1c-.18.31.45-.49.18-.24a2.72,2.72,0,0,1,.78-.47,2.17,2.17,0,0,1,2.62,2.29,1.91,1.91,0,0,1-.5,1.05c-.38.27-.49.36-.32.25s0-.05-.38.16l.09,0a1.69,1.69,0,0,1-1,0,2,2,0,0,1-1.08-.84,2.53,2.53,0,0,0,3.42.9,2.56,2.56,0,0,0,.9-3.42,3.28,3.28,0,0,0-4.42-1.12,3.11,3.11,0,0,0-1.09,4.58,3,3,0,0,0,4.54.14,3.26,3.26,0,0,0,1-2.19,3,3,0,0,0-1.43-2.54,2.5,2.5,0,0,0-2.53,4.32Z"/><path d="M142.31,65.28c7.62-5.46,16.28-8.74,25.3-11.09,9.32-2.43,19.08-4.74,28.71-5.32C214.51,47.78,230,60.12,248,58.73c1.59-.12,1.6-2.62,0-2.5-9.67.75-18.53-2.82-27.5-5.9-9.27-3.18-18.13-4.74-27.95-3.63-17.4,2-37.07,6.06-51.53,16.43-1.3.93-.05,3.09,1.26,2.15Z"/><path d="M219.94,167.94c-3.07,2.93-6.56,4.14-10,6.41a69.82,69.82,0,0,0-7.65,6.18c-5.2,4.59-10.61,8.95-15.84,13.54-3.6,3.16-5,6.16-.7,9.54,5.43,4.23,11,8.75,17.78,10.43,4.2,1,8.49,1.73,12.69,2.79a36.66,36.66,0,0,1,6.38,2.1c1.13.52,2.55,1.71,3.74,1.93,1.53.3,2.19-.16,3.46-1.07,3.42-2.47,6.54-5.17,10.24-7.27a96,96,0,0,0,18.09-12.75c4.18-3.91,2.32-7.33-1.17-10.94-5.34-5.52-12.81-9.66-19.31-13.61-3.42-2.07-6.81-4.08-10.25-6.13-2.09-1.24-3.45-3.56-5.86-2.35-1.43.73-.17,2.89,1.27,2.16.06,0,7.76,4.51,8.51,5,3.07,1.86,5.83,4.29,8.87,6.2,2.62,1.65,5.16,3.06,7.67,4.92,2.88,2.13,6.78,4,8.68,7.14,3.1,5.19-2.36,7.58-5.8,10.12a112.75,112.75,0,0,1-10.41,7.32,82,82,0,0,0-9,5.66c-.86.65-2.65,3.05-3.75,3.16s-2.87-1.25-3.83-1.69c-7.16-3.24-15.24-3.29-22.59-5.91-3.47-1.23-6.1-3.66-9-5.77-1.28-.92-3.56-1.92-4.52-3.15-3-3.81-.49-5.09,1.7-6.94,4.94-4.19,9.92-8.35,14.79-12.62a58.61,58.61,0,0,1,8.4-6.57c3.36-2,6.41-3.29,9.27-6,1.16-1.12-.61-2.88-1.77-1.77Z"/><path class="cls-6" d="M236.33,128.79c-4.82-6.38-2-14.11,1.67-20.25S245.63,96,251.11,91.3c10.31-8.81,25.6-10.17,37.56-4.11,1.44.72,2.7-1.43,1.27-2.16-13-6.58-29.42-5.09-40.6,4.5-6.44,5.52-11.7,13.69-15.45,21.23-3,6.06-4,13.57.28,19.29,1,1.27,3.13,0,2.16-1.26Z"/><path class="cls-6" d="M198.84,130.49C199.38,119.72,196,107.43,189,99c-7.6-9.23-21.54-11.49-32.75-9.52-7.19,1.25-13.58,4.61-20,7.88a74,74,0,0,1-24.09,7.37c-7.63,1.09-14.77,2.71-21.44,6.71-6.18,3.69-11.57,8.54-16.88,13.34-1.2,1.08.57,2.85,1.76,1.77,5-4.48,10-9,15.69-12.53,6.14-3.79,12.67-5.58,19.74-6.63,6.6-1,13-1.84,19.25-4.44,6.38-2.67,12.26-6.44,18.75-8.89,11.7-4.41,28.45-4.23,37.42,5.78,7.06,7.87,10.39,20.22,9.87,30.62-.08,1.61,2.42,1.6,2.5,0Z"/><path class="cls-6" d="M197.45,130.07a1.25,1.25,0,0,0,0-2.5,1.25,1.25,0,0,0,0,2.5Z"/><path class="cls-6" d="M197.45,130.67a1.25,1.25,0,0,0,0-2.5,1.25,1.25,0,0,0,0,2.5Z"/><path class="cls-6" d="M166.85,69.05c9-3.43,17.15-1.92,25.38,2.7,5.23,2.93,10.66,5.47,16.63,3.17,1.49-.57.84-3-.66-2.41C200,75.68,193.27,68.42,185.92,66a29.21,29.21,0,0,0-19.73.67c-1.49.57-.85,3,.66,2.41Z"/><path class="cls-6" d="M29.19,292.26c1.8,18.38,14,32.69,28.13,43.55,16.77,12.87,35.34,23.67,53,35.2,1.35.88,2.61-1.28,1.26-2.16C95.42,358.3,78.8,348.2,63.06,337c-15.14-10.82-29.47-25.24-31.37-44.71-.15-1.59-2.65-1.61-2.5,0Z"/><path class="cls-6" d="M179.24,395.19c8.38,2.31,13.63,9.78,21.41,13.25,7,3.14,14.95,3,22.41,1.94,9.89-1.47,19.4-4.57,29.49-4.61,8.2,0,16.18.76,23.81-2.82,1.45-.68.18-2.84-1.26-2.16-8.77,4.11-18.44,1.9-27.73,2.67-7.9.66-15.52,3-23.32,4.24-9,1.48-18.37,1.45-26.23-3.67-6-3.92-10.76-9.28-17.91-11.25a1.25,1.25,0,0,0-.67,2.41Z"/></g><g id="Layer_3" data-name="Layer 3"><path class="cls-6" d="M380.47,329.6a87.23,87.23,0,0,1-32.44,67c-1.25,1,.52,2.77,1.77,1.77A89.6,89.6,0,0,0,383,329.6a1.25,1.25,0,0,0-2.5,0Z"/><path class="cls-6" d="M118.23,659.67c2-1.72-.82-3.88-2.78-2.29-3.54,2.87-4.21,8.84-3.65,13,.16,1.17,1.75,1.08,2.29.3,1.53-2.25,10.34-12,3.64-13.43a1.28,1.28,0,0,0-1.41.57,37.18,37.18,0,0,0-4.11,11.55,1.25,1.25,0,0,0,2.41.67A32.32,32.32,0,0,1,121,658.74a1.29,1.29,0,0,0,.19-1.52,3.44,3.44,0,0,0-1.89-1.46l-.33,2.46,3.93,0-1.21-1.58a26.46,26.46,0,0,1-8.24,15.24l2.13.88a15.81,15.81,0,0,1,4.74-11.38l-2.13-.88a7.61,7.61,0,0,1-1.17,4.35,1.25,1.25,0,0,0,2.15,1.26,10.78,10.78,0,0,0,1.52-5.61,1.27,1.27,0,0,0-2.14-.89,18.46,18.46,0,0,0-5.47,13.15,1.26,1.26,0,0,0,2.13.89,28.64,28.64,0,0,0,8.89-16.34,1.27,1.27,0,0,0-1.2-1.59l-3.93,0a1.25,1.25,0,0,0-.33,2.45l.39.31.2-1.51a35.52,35.52,0,0,0-7,12.38l2.41.67a35.14,35.14,0,0,1,3.86-10.95l-1.42.57c1.67.35-1.84,4.94-2,5.17l-3.14,4.59,2.28.3a13.46,13.46,0,0,1,.44-5.92c.38-1.18,1.44-4.34,2.91-4.72l-1.22-.32.08.15.32-1.22-.28.24c-1.23,1,.55,2.8,1.77,1.76Z"/><path class="cls-6" d="M135.81,657a16.13,16.13,0,0,0,6.6,18.5,1.26,1.26,0,0,0,1.83-1.41c-1.47-4.79,3.09-11-.76-15.23-1.2-1.31-3.23-2-4.74-.78-2.41,2-.62,5.15-1.14,7.65l2.45.33a22.55,22.55,0,0,0-.71-6.11,1.26,1.26,0,0,0-2.46.34l.06,6.82c0,1.36,2.2,1.76,2.46.33l1.07-6h-2.41L139,667c.24,1.44,2.41,1,2.46-.33a16.68,16.68,0,0,1,.61-3.91l-2.45-.33,0,3.81c0,1.37,2.21,1.76,2.45.34l.69-4-2.46-.33a19.13,19.13,0,0,0,.74,5.92,1.26,1.26,0,0,0,2.46-.33l0-3.73a1.25,1.25,0,0,0-2.5,0l0,3.73,2.45-.34a17,17,0,0,1-.65-5.25c0-1.38-2.21-1.75-2.45-.33l-.69,4,2.46.33,0-3.81a1.26,1.26,0,0,0-2.46-.33,19.59,19.59,0,0,0-.7,4.57l2.46-.34-.92-5.63a1.26,1.26,0,0,0-2.41,0l-1.07,6,2.45.33-.06-6.82-2.45.33a20,20,0,0,1,.62,5.44c0,1.38,2.17,1.74,2.46.33.22-1.08-.32-2.8,0-3.7,1.62-1.5,2.43-1.59,2.41-.29a4.37,4.37,0,0,1,.08,1.44,18.14,18.14,0,0,1-.42,2.74c-.52,2.77-1.1,5.41-.25,8.17l1.84-1.41a13.57,13.57,0,0,1-5.45-15.67c.5-1.54-1.92-2.19-2.41-.67Z"/><path class="cls-6" d="M138.77,665.87l.83,3.08a1.25,1.25,0,0,0,2.45-.34,7,7,0,0,0-.36-2.46,28.08,28.08,0,0,1-.4-3.44,21.94,21.94,0,0,0-2-6.53l-.19,1.51c1.26-1.38,3.09.15,3.45,1.52.43,1.63-.25,3.49-.74,5s1.94,2.19,2.42.66c.9-2.91,1.78-6.69-.85-9a4.3,4.3,0,0,0-6.05,0,1.3,1.3,0,0,0-.2,1.51,18.57,18.57,0,0,1,1.74,6.23c.07.77,0,1.62.06,2.38.12.91.68,1.6.6,2.56l2.46-.33-.83-3.08a1.25,1.25,0,0,0-2.41.67Z"/><path class="cls-6" d="M117.83,667.12l.72-3.77h-2.41a6.85,6.85,0,0,1-2,6l2.09.56a12.22,12.22,0,0,1,4.27-11.35c1.23-1-.55-2.81-1.77-1.76a14.71,14.71,0,0,0-4.91,13.77,1.26,1.26,0,0,0,2.09.55,9.58,9.58,0,0,0,2.59-8.48,1.26,1.26,0,0,0-2.41,0l-.72,3.77c-.3,1.58,2.11,2.25,2.41.67Z"/><path class="cls-6" d="M163.86,655.88a23,23,0,0,0,3.39,17.38,1.26,1.26,0,0,0,2.29-1A55.34,55.34,0,0,1,168,659a1.26,1.26,0,0,0-2.46-.33,15.48,15.48,0,0,0,1.61,11.91,1.27,1.27,0,0,0,2.29-.3c1-2.77,2.23-7.17,1.24-10.11a2.54,2.54,0,0,0-1.09-1.66c-.16-.08-.52-.07-.63-.17a2.64,2.64,0,0,0-.93,0q-1.61.23,2.43-.82l-.92-1.2a100.68,100.68,0,0,1-.84,14.31l2.46-.33a20.39,20.39,0,0,1-.87-9.92c.26-1.62.8-3.21.31-4.84-.62-2-2.69-3.67-4.83-2.67-6.19,2.89,1,14.85,3.12,18.06.9,1.32,3.07.07,2.16-1.27a33.55,33.55,0,0,1-3.46-6.37,26.66,26.66,0,0,1-1.13-3.37,6.21,6.21,0,0,1-.36-1.9q-.48-2.06,2,.46c.37.76-.7,4.55-.68,5.58a22.4,22.4,0,0,0,1.28,6.91,1.25,1.25,0,0,0,2.45-.34,100.68,100.68,0,0,0,.84-14.31,1.28,1.28,0,0,0-.92-1.21c-2.53-.4-6.84,0-6.08,3.69.31,1.46,1.07,1.37,2,2.09a1.23,1.23,0,0,0,.66,0,3,3,0,0,1,.62,2.64,17.36,17.36,0,0,1-1.3,6.1l2.28-.3a12.79,12.79,0,0,1-1.36-10l-2.45-.33a58.19,58.19,0,0,0,1.64,14l2.28-1a20.52,20.52,0,0,1-3.14-15.46c.3-1.57-2.1-2.24-2.41-.66Z"/><path class="cls-6" d="M80.24,503.64a9.62,9.62,0,0,0-10.42,9.17,1.26,1.26,0,0,0,2.14.88,25.66,25.66,0,0,1,9-6.46L80,505a31.26,31.26,0,0,0-7.63,6.21,1.27,1.27,0,0,0,.89,2.13,12.85,12.85,0,0,0,9.45-4.48c1-1.22-.72-3-1.77-1.77a10.33,10.33,0,0,1-7.68,3.75l.88,2.13a28.88,28.88,0,0,1,7.12-5.81c1.18-.69.38-2.85-1-2.29a28.58,28.58,0,0,0-10.14,7.1l2.13.89a7.12,7.12,0,0,1,7.92-6.67c1.6.18,1.59-2.32,0-2.5Z"/><path class="cls-6" d="M95.36,510.05a13.36,13.36,0,0,0-7.12,11.86,1.26,1.26,0,0,0,2.46.34,10.79,10.79,0,0,1,5.17-6.71l-1.71-1.71-5,9.1c-.65,1.19,1,2.64,2,1.51l7-8.4c1-1.22-.73-3-1.76-1.76l-7,8.4,2,1.51,5-9.1a1.26,1.26,0,0,0-1.71-1.71,13.28,13.28,0,0,0-6.32,8.2l2.45.33a10.88,10.88,0,0,1,5.88-9.71c1.42-.75.16-2.91-1.26-2.15Z"/><path class="cls-6" d="M96.76,513.84l.6-2.42-2.28.3,1.26,1.79a1.25,1.25,0,1,0,2.15-1.26l-1.26-1.79a1.26,1.26,0,0,0-2.28.29l-.6,2.43a1.25,1.25,0,0,0,2.41.66Z"/><path class="cls-6" d="M109.59,514.48a22.3,22.3,0,0,0-.52,13.8,1.26,1.26,0,0,0,2.41,0,102.25,102.25,0,0,0,2.56-11c.07-.43,0-1.55.28-1.79.6-.51-.52,3.32-.51,3.29-.65,1.93-1.32,3.86-2,5.79-.53,1.53,1.89,2.18,2.41.67.72-2.11,5.81-12.76-.2-12.22-2.34.22-2.22,2.26-2.5,4.08a81.46,81.46,0,0,1-2.47,10.57h2.41a19.93,19.93,0,0,1,.52-12.47c.55-1.52-1.86-2.17-2.41-.67Z"/></g></g></svg>